<?xml version="1.0" encoding="UTF-8"?>
<svg version="1.1" xmlns="http://www.w3.org/2000/svg" width="503" height="503">
<path d="M0 0 C0.97775391 0.19867676 1.95550781 0.39735352 2.96289062 0.60205078 C42.51593428 8.87843217 79.31515192 24.73938716 111 50 C112.41732422 51.10021484 112.41732422 51.10021484 113.86328125 52.22265625 C125.78378994 61.67076313 137.27049552 72.29587284 147 84 C147.82242187 84.98484375 148.64484375 85.9696875 149.4921875 86.984375 C186.74810533 132.56043904 207.20324716 188.7734811 207.25 247.625 C207.25067474 248.39356323 207.25134949 249.16212646 207.25204468 249.95397949 C207.23285849 263.80605016 206.35035445 277.32733228 204 291 C203.83902832 291.94133789 203.67805664 292.88267578 203.51220703 293.85253906 C199.3384477 317.19512004 191.4959213 339.76576793 181 361 C180.63406738 361.74427246 180.26813477 362.48854492 179.89111328 363.25537109 C174.69478708 373.70996645 168.76027707 383.48744728 162 393 C161.54254395 393.6482373 161.08508789 394.29647461 160.61376953 394.96435547 C153.17900519 405.42100824 144.9584084 414.82963034 136 424 C135.40364746 424.61681641 134.80729492 425.23363281 134.19287109 425.86914062 C126.85726712 433.44470353 119.41860861 440.616424 111 447 C110.06559082 447.71639648 110.06559082 447.71639648 109.11230469 448.44726562 C97.3449358 457.41660328 85.06453266 465.06567353 72 472 C71.17725586 472.43940918 70.35451172 472.87881836 69.50683594 473.33154297 C45.23717481 486.09462044 18.93800219 493.47296021 -8 498 C-9.25852783 498.2160791 -9.25852783 498.2160791 -10.54248047 498.43652344 C-35.22330025 502.44629248 -62.46809189 501.19873852 -87 497 C-88.38807861 496.76651855 -88.38807861 496.76651855 -89.80419922 496.52832031 C-116.26782323 491.88037093 -141.27235677 482.43505108 -165 470 C-166.04148193 469.46342773 -166.04148193 469.46342773 -167.10400391 468.91601562 C-183.81571081 460.23209309 -199.08314128 448.61582548 -213 436 C-214.11967999 435.0024788 -215.23947242 434.0050838 -216.359375 433.0078125 C-257.00854182 396.48944144 -282.60978142 346.27589308 -293 293 C-293.16661133 292.17274414 -293.33322266 291.34548828 -293.50488281 290.49316406 C-299.13687558 261.19047704 -298.08691364 228.11439321 -292 199 C-291.82339844 198.09991211 -291.64679688 197.19982422 -291.46484375 196.27246094 C-283.00234807 153.66222806 -262.55232299 114.49910361 -234 82 C-233.23816406 81.12601562 -232.47632813 80.25203125 -231.69140625 79.3515625 C-222.84679595 69.35604926 -213.5079805 60.23365047 -203 52 C-201.55753906 50.83210938 -201.55753906 50.83210938 -200.0859375 49.640625 C-145.44292123 6.20288548 -68.92189763 -14.25837771 0 0 Z " fill="#BCE8DE" transform="translate(296,3)"/>
<path d="M0 0 C4.16024679 1.55495825 7.21814652 4.25619774 10.64453125 7.03515625 C28.16643936 21.11404057 28.16643936 21.11404057 49.14453125 27.47265625 C52.96988238 27.01097594 54.11418537 26.70170612 56.76953125 24.03515625 C57.68297021 21.08999973 57.68297021 21.08999973 58.01953125 17.84765625 C58.1690625 16.76097656 58.31859375 15.67429688 58.47265625 14.5546875 C58.570625 13.72324219 58.66859375 12.89179688 58.76953125 12.03515625 C59.65640625 12.79828125 60.54328125 13.56140625 61.45703125 14.34765625 C62.09769531 14.89292969 62.73835938 15.43820313 63.3984375 16 C65.16870857 17.51945837 66.92419602 19.05617207 68.671875 20.6015625 C83.97907555 34.48097057 83.97907555 34.48097057 102.89453125 40.41015625 C106.93912243 40.0187442 108.74772536 39.71161289 111.76953125 37.03515625 C114.6759966 31.50717314 115.28249226 26.78631022 115.45703125 20.59765625 C115.49119141 19.77072266 115.52535156 18.94378906 115.56054688 18.09179688 C115.64221746 16.07336681 115.70756849 14.05428741 115.76953125 12.03515625 C116.73890625 12.90140625 117.70828125 13.76765625 118.70703125 14.66015625 C130.53392524 24.77024305 142.31696914 30.59119037 158.04296875 30.35546875 C167.81749055 29.51531069 176.77199861 25.7071588 185.76953125 22.03515625 C186.14650146 23.0209668 186.52347168 24.00677734 186.91186523 25.02246094 C195.45221888 47.57543582 195.45221888 47.57543582 204.83203125 69.78515625 C205.16452881 70.53120117 205.49702637 71.27724609 205.83959961 72.04589844 C209.43211105 80.75037756 209.43211105 80.75037756 215.76953125 87.03515625 C216.90720494 120.26397928 209.37627846 151.66558569 193.76953125 181.03515625 C193.23537598 182.05343506 193.23537598 182.05343506 192.69042969 183.09228516 C184.91576987 197.82635018 175.20606074 209.99200897 163.76953125 222.03515625 C163.20105469 222.66808594 162.63257813 223.30101562 162.046875 223.953125 C147.07240164 240.07653494 125.02727466 251.27272901 103.76953125 256.03515625 C102.68929687 256.2775 101.6090625 256.51984375 100.49609375 256.76953125 C74.91241277 261.53827783 50.44175006 255.98661538 27.76953125 244.03515625 C26.58423828 243.45314453 26.58423828 243.45314453 25.375 242.859375 C-9.17027695 225.2342337 -32.5975875 186.73416229 -44.59423828 151.08398438 C-46.34321975 145.45180766 -47.559745 139.68666898 -48.80126953 133.92626953 C-49.39028261 131.33099346 -50.1316161 128.78314996 -50.85546875 126.22265625 C-54.21024753 112.87686963 -54.60398901 98.7308993 -54.23046875 85.03515625 C-51.26046875 84.54015625 -51.26046875 84.54015625 -48.23046875 84.03515625 C-47.988125 82.9471875 -47.74578125 81.85921875 -47.49609375 80.73828125 C-40.51345578 49.87713738 -27.45706734 22.7108574 -4.046875 0.9765625 C-2.23046875 0.03515625 -2.23046875 0.03515625 0 0 Z " fill="#F6DDCD" transform="translate(170.23046875,195.96484375)"/>
<path d="M0 0 C0.80774872 -0.01252808 1.61549744 -0.02505615 2.44772339 -0.03796387 C20.9767165 -0.26966228 38.29766976 0.15294331 56.25 5.2734375 C57.0646875 5.49805664 57.879375 5.72267578 58.71875 5.95410156 C96.63339008 16.66436379 129.14446008 41.61779609 148.48486328 75.9597168 C157.94749898 93.43236933 162.00643797 111.21618712 161.6875 130.9609375 C161.6810144 131.73970245 161.67452881 132.51846741 161.66784668 133.3208313 C161.28448273 178.23581997 161.28448273 178.23581997 150.25 190.2734375 C147.8125 191.4609375 147.8125 191.4609375 145.25 191.2734375 C141.25782873 187.84607503 138.80761519 184.15133477 136.5625 179.4609375 C136.23000244 178.7800708 135.89750488 178.0992041 135.55493164 177.39770508 C127.76292026 161.13526001 121.29580241 144.24973036 115.25 127.2734375 C111.65386999 127.2734375 109.39225929 128.29779657 106.0625 129.6484375 C93.23020829 134.63720289 80.431362 136.8771083 67.25 131.2734375 C59.01179033 127.56445998 52.6929404 122.56264179 46.25 116.2734375 C46.22421875 117.4078125 46.1984375 118.5421875 46.171875 119.7109375 C45.65847609 135.15055404 45.65847609 135.15055404 41.25 141.2734375 C38.10348414 144.07034049 34.97481614 144.9959856 30.734375 144.8046875 C14.45878143 141.32437189 0.88283536 127.29843102 -10.75 116.2734375 C-10.87955078 117.39492187 -10.87955078 117.39492187 -11.01171875 118.5390625 C-12.14950209 126.51398426 -12.14950209 126.51398426 -14.875 129.9609375 C-20.06384501 132.32975805 -23.5702639 131.97622395 -28.8515625 130.2734375 C-42.34515745 124.91255102 -53.76441001 116.32529905 -64.9453125 107.20703125 C-67.79117287 105.24505231 -69.29724899 104.22403407 -72.75 104.2734375 C-96.39583489 119.45617019 -110.05129257 153.28888699 -115.77734375 179.24609375 C-115.98991821 180.27101929 -115.98991821 180.27101929 -116.20678711 181.31665039 C-116.81513067 183.50805427 -117.58350942 185.32017674 -118.75 187.2734375 C-121.0625 188.3359375 -121.0625 188.3359375 -123.75 188.2734375 C-132.42546828 181.98372299 -135.02526875 170.18770864 -137.29174805 160.27075195 C-137.60174679 158.91960667 -137.93737046 157.57412772 -138.29614258 156.23510742 C-140.22324427 148.2732477 -140.08704469 140.24996592 -140.06567383 132.10766602 C-140.06252832 129.60843646 -140.08598545 127.1104109 -140.11132812 124.61132812 C-140.23721957 93.31258532 -127.30033523 64.58714359 -105.640625 42.140625 C-81.91660539 18.30363387 -50.80979109 5.3488174 -17.75 1.2734375 C-17.06108673 1.18692429 -16.37217346 1.10041107 -15.66238403 1.01127625 C-10.43218823 0.38837443 -5.26509115 0.07558868 0 0 Z " fill="#00A7A7" transform="translate(240.75,92.7265625)"/>
<path d="M0 0 C2.38837453 1.19135744 4.516827 2.38714981 6.75 3.8125 C18.52585257 10.8773929 29.80152701 12.88374882 43.40625 9.8359375 C49.20382173 7.967443 55.65273588 5.34726412 60 1 C64.86529611 0.25944165 68.83140957 0.28453647 73.0625 2.875 C76.20595662 6.3226621 76.54098997 8.99693725 76.453125 13.55859375 C75.57196415 18.30622763 72.67149449 21.05658154 69 24 C65.15086528 26.42955588 61.20232458 28.26358716 57 30 C56.06929688 30.41507812 55.13859375 30.83015625 54.1796875 31.2578125 C38.97000722 37.05777058 19.10867831 35.86906355 4.390625 29.41796875 C-2.18482081 26.33683982 -8.97260157 23.12827058 -13.375 17.125 C-14.35485755 13.79348434 -14.47027275 11.46826157 -14 8 C-10.26404587 2.2127091 -7.08377621 -0.64626868 0 0 Z " fill="#C16A50" transform="translate(220,374)"/>
<path d="M0 0 C2.00812669 -0.01718416 4.01596651 -0.06108822 6.02368164 -0.10522461 C7.29920898 -0.11360352 8.57473633 -0.12198242 9.88891602 -0.13061523 C11.05334229 -0.14519775 12.21776855 -0.15978027 13.41748047 -0.17480469 C17.96105424 0.47312327 21.29721685 2.42872876 24.08813477 6.10766602 C25.04725594 9.46459012 25.1862505 11.80593749 24.71313477 15.29516602 C22.31539549 19.11490839 20.03381577 21.85493902 15.71313477 23.29516602 C11.11357771 23.58430838 6.50824625 23.57295272 1.90063477 23.60766602 C0.62897461 23.63666992 -0.64268555 23.66567383 -1.95288086 23.69555664 C-13.5729018 23.77468722 -13.5729018 23.77468722 -18.28686523 19.29516602 C-20.61683756 16.3297467 -20.76111936 13.05878767 -20.67749023 9.33032227 C-19.96864652 5.63724649 -17.97547713 3.85872619 -15.28686523 1.29516602 C-10.33263686 -0.35624344 -5.18916858 0.03092171 0 0 Z " fill="#C26B51" transform="translate(249.286865234375,328.704833984375)"/>
<path d="M0 0 C3.6578218 2.03993908 5.66946174 3.50419262 8 7 C8.43327485 11.37107003 8.41407797 15.7515106 8.42553711 20.14135742 C8.43740509 22.29527526 8.48656218 24.44629868 8.53710938 26.59960938 C8.546578 27.97915276 8.55381094 29.35871366 8.55859375 30.73828125 C8.57204834 31.98649658 8.58550293 33.23471191 8.59936523 34.52075195 C7.80738506 39.11810815 6.25844585 40.71821153 3 44 C-0.45739557 45.72869779 -4.21975568 45.48966895 -8 45 C-10.87029869 43.20606332 -12.49131638 42.01736724 -14 39 C-14.28239004 34.5060664 -14.31371507 30.00844388 -14.35009766 25.50683594 C-14.36662195 24.00928163 -14.39386606 22.51180505 -14.43212891 21.01464844 C-14.48718342 18.84789414 -14.5088139 16.68298656 -14.5234375 14.515625 C-14.54325684 13.21915039 -14.56307617 11.92267578 -14.58349609 10.58691406 C-13.81576585 5.86746101 -12.39215197 4.31291649 -9 1 C-5.64870516 -0.11709828 -3.51689744 -0.34479387 0 0 Z " fill="#C16A50" transform="translate(198,261)"/>
<path d="M0 0 C2.76101146 1.82109266 4.52100548 3.04201097 6 6 C6.28186639 10.35144614 6.31369605 14.70657959 6.35009766 19.06591797 C6.36661943 20.51497501 6.39386032 21.96395181 6.43212891 23.41259766 C6.48720676 25.5098667 6.50881703 27.60522788 6.5234375 29.703125 C6.54325684 30.95770508 6.56307617 32.21228516 6.58349609 33.50488281 C5.81231886 38.12420216 4.27280898 39.70931356 1 43 C-2.47263273 44.73631636 -6.21193013 44.60190402 -10 44 C-12.75569447 41.81840855 -14.43588747 40.12822506 -16 37 C-16.25840788 32.62987717 -16.27103382 28.25594302 -16.29516602 23.87915039 C-16.31235449 21.70589761 -16.35623807 19.53417654 -16.40039062 17.36132812 C-16.41052026 15.9739695 -16.41903552 14.58659796 -16.42578125 13.19921875 C-16.44036377 11.93940186 -16.45494629 10.67958496 -16.4699707 9.3815918 C-15.83271034 4.79629662 -13.82982353 2.43771849 -10.25 -0.375 C-6.72603858 -1.35387817 -3.46783423 -0.97016791 0 0 Z " fill="#C16950" transform="translate(313,262)"/>
<path d="M0 0 C2.31282587 3.46923881 2.42478586 4.92205575 2 9 C0.875 10.875 0.875 10.875 -1 12 C-4.65259739 12.54400387 -6.3433886 12.43774093 -9.4375 10.375 C-11 8 -11 8 -11 4.9375 C-10 2 -10 2 -8.3125 0.0625 C-5.13778084 -1.39615475 -3.30121799 -1.00471852 0 0 Z " fill="#FE9796" transform="translate(318,369)"/>
<path d="M0 0 C2.31282587 3.46923881 2.42478586 4.92205575 2 9 C0.875 10.875 0.875 10.875 -1 12 C-4.11811483 12.38976435 -6.11019567 12.50422245 -8.875 10.9375 C-10.66235303 7.85928089 -10.43386742 5.47093932 -10 2 C-7.01983499 -1.66789539 -4.31348256 -1.31279904 0 0 Z " fill="#FE9695" transform="translate(348,356)"/>
<path d="M0 0 C2.5625 0.1875 2.5625 0.1875 4.5625 2.1875 C4.6875 4.8125 4.6875 4.8125 4.5625 7.1875 C2.2364143 7.56813221 -0.09805264 7.90019945 -2.4375 8.1875 C-3.4375 7.1875 -3.4375 7.1875 -3.5625 4.1875 C-3.39891479 0.26145498 -3.39891479 0.26145498 0 0 Z " fill="#FE9796" transform="translate(315.4375,346.8125)"/>
<path d="M0 0 C2.5 0.125 2.5 0.125 3.5 1.125 C3.54080783 3.12458364 3.54254356 5.12545254 3.5 7.125 C0.625 7.75 0.625 7.75 -2.5 8.125 C-3.16 7.465 -3.82 6.805 -4.5 6.125 C-3.77607362 0.18880368 -3.77607362 0.18880368 0 0 Z " fill="#FE9695" transform="translate(333.5,372.875)"/>
</svg>
