<?xml version="1.0" encoding="UTF-8"?>
<svg version="1.1" xmlns="http://www.w3.org/2000/svg" width="503" height="503">
<path d="M0 0 C0.97775391 0.19867676 1.95550781 0.39735352 2.96289062 0.60205078 C42.51593428 8.87843217 79.31515192 24.73938716 111 50 C112.41732422 51.10021484 112.41732422 51.10021484 113.86328125 52.22265625 C125.78378994 61.67076313 137.27049552 72.29587284 147 84 C147.82242187 84.98484375 148.64484375 85.9696875 149.4921875 86.984375 C186.74810533 132.56043904 207.20324716 188.7734811 207.25 247.625 C207.25067474 248.39356323 207.25134949 249.16212646 207.25204468 249.95397949 C207.23285849 263.80605016 206.35035445 277.32733228 204 291 C203.83902832 291.94133789 203.67805664 292.88267578 203.51220703 293.85253906 C199.3384477 317.19512004 191.4959213 339.76576793 181 361 C180.63406738 361.74427246 180.26813477 362.48854492 179.89111328 363.25537109 C174.69478708 373.70996645 168.76027707 383.48744728 162 393 C161.54254395 393.6482373 161.08508789 394.29647461 160.61376953 394.96435547 C153.17900519 405.42100824 144.9584084 414.82963034 136 424 C135.40364746 424.61681641 134.80729492 425.23363281 134.19287109 425.86914062 C126.85726712 433.44470353 119.41860861 440.616424 111 447 C110.06559082 447.71639648 110.06559082 447.71639648 109.11230469 448.44726562 C97.3449358 457.41660328 85.06453266 465.06567353 72 472 C71.17725586 472.43940918 70.35451172 472.87881836 69.50683594 473.33154297 C45.23717481 486.09462044 18.93800219 493.47296021 -8 498 C-9.25852783 498.2160791 -9.25852783 498.2160791 -10.54248047 498.43652344 C-35.22330025 502.44629248 -62.46809189 501.19873852 -87 497 C-88.38807861 496.76651855 -88.38807861 496.76651855 -89.80419922 496.52832031 C-116.26782323 491.88037093 -141.27235677 482.43505108 -165 470 C-166.04148193 469.46342773 -166.04148193 469.46342773 -167.10400391 468.91601562 C-183.81571081 460.23209309 -199.08314128 448.61582548 -213 436 C-214.11967999 435.0024788 -215.23947242 434.0050838 -216.359375 433.0078125 C-257.00854182 396.48944144 -282.60978142 346.27589308 -293 293 C-293.16661133 292.17274414 -293.33322266 291.34548828 -293.50488281 290.49316406 C-299.13687558 261.19047704 -298.08691364 228.11439321 -292 199 C-291.82339844 198.09991211 -291.64679688 197.19982422 -291.46484375 196.27246094 C-283.00234807 153.66222806 -262.55232299 114.49910361 -234 82 C-233.23816406 81.12601562 -232.47632813 80.25203125 -231.69140625 79.3515625 C-222.84679595 69.35604926 -213.5079805 60.23365047 -203 52 C-201.55753906 50.83210938 -201.55753906 50.83210938 -200.0859375 49.640625 C-145.44292123 6.20288548 -68.92189763 -14.25837771 0 0 Z " fill="#BCE8DE" transform="translate(296,3)"/>
<path d="M0 0 C0.82886719 0.68578125 1.65773438 1.3715625 2.51171875 2.078125 C3.35089844 2.74328125 4.19007813 3.4084375 5.0546875 4.09375 C21.31820123 17.70971499 31.44116674 38.09170387 33.51171875 59.078125 C33.67115835 62.02087417 33.72098819 64.95958617 33.75 67.90625 C33.75983917 68.72903946 33.76967834 69.55182892 33.77981567 70.39955139 C34.10567131 104.66789534 34.10567131 104.66789534 29.51171875 119.078125 C29.26502441 119.87895508 29.01833008 120.67978516 28.76416016 121.50488281 C24.50804613 134.98127087 18.51895569 149.65395135 7.51171875 159.078125 C5.03671875 160.068125 5.03671875 160.068125 2.51171875 161.078125 C2.51171875 167.678125 2.51171875 174.278125 2.51171875 181.078125 C-6.72828125 181.078125 -15.96828125 181.078125 -25.48828125 181.078125 C-25.52695312 176.23640625 -25.52695312 176.23640625 -25.56640625 171.296875 C-25.60487639 168.15258255 -25.65002072 165.00845133 -25.69580078 161.86425781 C-25.72393492 159.68790451 -25.74518685 157.51145047 -25.75927734 155.33496094 C-25.78081131 152.19674382 -25.82751631 149.05972837 -25.87890625 145.921875 C-25.88074921 144.47451965 -25.88074921 144.47451965 -25.88262939 142.9979248 C-26.04095553 135.60818582 -27.53331375 129.9573241 -32.92578125 124.703125 C-40.37259141 119.98075758 -48.53723512 119.93798762 -57.10742188 119.87280273 C-57.92789001 119.86290314 -58.74835815 119.85300354 -59.59368896 119.84280396 C-62.27727477 119.81148153 -64.96087821 119.7865486 -67.64453125 119.76171875 C-69.51640251 119.74112388 -71.38826939 119.72012678 -73.26013184 119.69874573 C-78.16565377 119.64378648 -83.07121584 119.59426285 -87.97680664 119.54589844 C-92.99108413 119.49549143 -98.00530397 119.43990599 -103.01953125 119.38476562 C-112.84239857 119.27750429 -122.66531613 119.17598939 -132.48828125 119.078125 C-133.24295036 113.96256517 -133.57872083 109.23318093 -133.48828125 104.078125 C-135.13376953 103.89636719 -135.13376953 103.89636719 -136.8125 103.7109375 C-138.26696948 103.54203137 -139.72139429 103.37274019 -141.17578125 103.203125 C-141.89701172 103.12449219 -142.61824219 103.04585938 -143.36132812 102.96484375 C-147.37344057 102.4885199 -150.78803637 101.81512358 -154.48828125 100.078125 C-155.3940647 96.8449813 -156.07546036 94.28856514 -154.55859375 91.16162109 C-153.11597025 89.11703584 -151.58691562 87.19064916 -149.98828125 85.265625 C-148.87607334 83.84392892 -147.7640933 82.42205454 -146.65234375 81 C-144.85767281 78.75958685 -143.04205876 76.54509472 -141.19921875 74.34375 C-136.53369147 68.42746435 -135.64940962 63.43738506 -134.91796875 55.99609375 C-132.52341526 34.16211963 -120.77764614 15.74876031 -104.50390625 1.4296875 C-74.21763944 -22.18732366 -30.63945096 -23.99861331 0 0 Z " fill="#F6DECE" transform="translate(283.48828125,108.921875)"/>
<path d="M0 0 C10.56 0 21.12 0 32 0 C32.01417969 2.69929688 32.02835937 5.39859375 32.04296875 8.1796875 C32.07367438 10.82434151 32.11274074 13.46875099 32.15258789 16.11328125 C32.17563517 17.93643403 32.19013214 19.75971744 32.19555664 21.58300781 C32.24043505 34.19038933 32.61400373 43.59938612 41.8125 53.0625 C44.3536503 55.83113318 45.51490503 57.58454903 45.6875 61.375 C45.10947197 67.57274503 43.59704928 73.64597735 38.87109375 77.9296875 C33.05884484 81.93219169 28.8766507 83.0103498 21.875 83.1875 C14.09377925 83.76388672 8.73321992 86.30709563 3.19140625 91.7890625 C-6.47923202 103.50958669 -5.68699862 116.90048414 -7 132 C-35.71 132 -64.42 132 -94 132 C-94 108.79771851 -94 108.79771851 -91.8125 99.5625 C-91.58473877 98.54736328 -91.35697754 97.53222656 -91.12231445 96.48632812 C-89.37983324 88.9950404 -87.27303085 81.98069181 -84 75 C-83.70722168 74.36658691 -83.41444336 73.73317383 -83.11279297 73.08056641 C-79.11787145 64.50783447 -74.80378031 56.50775996 -69 49 C-68.38511719 48.18273437 -67.77023438 47.36546875 -67.13671875 46.5234375 C-52.10909612 27.06883987 -28.13268527 7.52561184 -3.06640625 3.34375 C-2.05449219 3.2303125 -1.04257813 3.116875 0 3 C0 2.01 0 1.02 0 0 Z " fill="#00A7A7" transform="translate(212,290)"/>
<path d="M0 0 C17.71337798 -0.8795795 32.68910715 -0.27980902 49 7 C49.74733398 7.33128906 50.49466797 7.66257812 51.26464844 8.00390625 C55.96058705 10.13367832 60.50650272 12.47305638 65 15 C65.969375 15.54140625 66.93875 16.0828125 67.9375 16.640625 C76.04053118 21.49302158 83.00169974 27.7082256 90 34 C90.67933594 34.59425781 91.35867188 35.18851562 92.05859375 35.80078125 C110.38013039 52.80422173 121.40898331 78.31097472 126.375 102.375 C126.54306152 103.15149902 126.71112305 103.92799805 126.88427734 104.72802734 C128.61376786 113.99622679 128 122.18753455 128 132 C73.22 132 18.44 132 -38 132 C-38 110 -38 110 -36 108 C-31.04164118 108.11018575 -27.68866812 109.56056988 -23.3125 111.875 C-11.19530426 118.12128678 3.02081821 120.48699971 16.375 116.8125 C30.43478503 111.75570337 39.76769602 104.0924567 47 91 C52.18162841 79.37597264 52.74431707 67.7112012 48.26171875 55.7890625 C44.19127496 46.79123938 38.54784537 39.8818654 29.5 35.6875 C23.93526723 33.60499264 18.41132276 33.47593356 12.515625 33.37109375 C8.60912652 32.95874113 6.28336646 32.14356925 3 30 C0.23928495 26.25922906 -0.36390424 23.65377564 -0.29296875 19.04296875 C-0.2784668 17.37524414 -0.2784668 17.37524414 -0.26367188 15.67382812 C-0.23853516 14.52333984 -0.21339844 13.37285156 -0.1875 12.1875 C-0.16719727 10.43276367 -0.16719727 10.43276367 -0.14648438 8.64257812 C-0.11120278 5.761248 -0.0619028 2.88086096 0 0 Z " fill="#01A7A7" transform="translate(258,290)"/>
<path d="M0 0 C2.875 2.25 2.875 2.25 5 5 C5.63869019 5.70334473 5.63869019 5.70334473 6.2902832 6.42089844 C11.69792188 13.32239854 10.54588529 21.71262036 10.3125 30 C10.28738325 31.55334949 10.26457603 33.10673813 10.24414062 34.66015625 C10.19369085 38.44187135 10.09582555 42.21808499 10 46 C-0.56 46 -11.12 46 -22 46 C-22.33 42.37 -22.66 38.74 -23 35 C-25.75558969 32.84128894 -27.28893775 31.95063277 -30.4375 30.8125 C-31.91276348 30.17828829 -33.38416117 29.53500893 -34.8515625 28.8828125 C-35.92519043 28.41536621 -35.92519043 28.41536621 -37.02050781 27.93847656 C-45.64934098 23.84754974 -53.84915837 15.23834785 -60 8 C-60 7.01 -60 6.02 -60 5 C-55.27771059 3.69549164 -50.54972163 2.41504033 -45.81542969 1.15478516 C-44.21184616 0.72453195 -42.6098824 0.28818689 -41.00976562 -0.15478516 C-27.1415697 -3.98678666 -13.4728768 -7.07268059 0 0 Z " fill="#F6DECE" transform="translate(234,244)"/>
</svg>
