<?xml version="1.0" encoding="UTF-8"?>
<svg version="1.1" xmlns="http://www.w3.org/2000/svg" width="503" height="503">
<path d="M0 0 C0.97775391 0.19867676 1.95550781 0.39735352 2.96289062 0.60205078 C42.51593428 8.87843217 79.31515192 24.73938716 111 50 C112.41732422 51.10021484 112.41732422 51.10021484 113.86328125 52.22265625 C125.78378994 61.67076313 137.27049552 72.29587284 147 84 C147.82242187 84.98484375 148.64484375 85.9696875 149.4921875 86.984375 C186.74810533 132.56043904 207.20324716 188.7734811 207.25 247.625 C207.25067474 248.39356323 207.25134949 249.16212646 207.25204468 249.95397949 C207.23285849 263.80605016 206.35035445 277.32733228 204 291 C203.83902832 291.94133789 203.67805664 292.88267578 203.51220703 293.85253906 C199.3384477 317.19512004 191.4959213 339.76576793 181 361 C180.63406738 361.74427246 180.26813477 362.48854492 179.89111328 363.25537109 C174.69478708 373.70996645 168.76027707 383.48744728 162 393 C161.54254395 393.6482373 161.08508789 394.29647461 160.61376953 394.96435547 C153.17900519 405.42100824 144.9584084 414.82963034 136 424 C135.40364746 424.61681641 134.80729492 425.23363281 134.19287109 425.86914062 C126.85726712 433.44470353 119.41860861 440.616424 111 447 C110.06559082 447.71639648 110.06559082 447.71639648 109.11230469 448.44726562 C97.3449358 457.41660328 85.06453266 465.06567353 72 472 C71.17725586 472.43940918 70.35451172 472.87881836 69.50683594 473.33154297 C45.23717481 486.09462044 18.93800219 493.47296021 -8 498 C-9.25852783 498.2160791 -9.25852783 498.2160791 -10.54248047 498.43652344 C-35.22330025 502.44629248 -62.46809189 501.19873852 -87 497 C-88.38807861 496.76651855 -88.38807861 496.76651855 -89.80419922 496.52832031 C-116.26782323 491.88037093 -141.27235677 482.43505108 -165 470 C-166.04148193 469.46342773 -166.04148193 469.46342773 -167.10400391 468.91601562 C-183.81571081 460.23209309 -199.08314128 448.61582548 -213 436 C-214.11967999 435.0024788 -215.23947242 434.0050838 -216.359375 433.0078125 C-257.00854182 396.48944144 -282.60978142 346.27589308 -293 293 C-293.16661133 292.17274414 -293.33322266 291.34548828 -293.50488281 290.49316406 C-299.13687558 261.19047704 -298.08691364 228.11439321 -292 199 C-291.82339844 198.09991211 -291.64679688 197.19982422 -291.46484375 196.27246094 C-283.00234807 153.66222806 -262.55232299 114.49910361 -234 82 C-233.23816406 81.12601562 -232.47632813 80.25203125 -231.69140625 79.3515625 C-222.84679595 69.35604926 -213.5079805 60.23365047 -203 52 C-201.55753906 50.83210938 -201.55753906 50.83210938 -200.0859375 49.640625 C-145.44292123 6.20288548 -68.92189763 -14.25837771 0 0 Z " fill="#BCE8DF" transform="translate(296,3)"/>
<path d="M0 0 C0.029729 1.42880493 0.029729 1.42880493 0.06005859 2.88647461 C0.13679437 6.45947332 0.22539978 10.03210034 0.31738281 13.60473633 C0.35539443 15.14372355 0.39029293 16.68279124 0.421875 18.22192383 C0.83359876 38.04256287 4.93433451 53.53161248 19.625 67.6875 C26.21300785 73.19486624 34.69105615 76.92642843 42.75 79.75 C46 81 46 81 48 84 C48.99 84.33 49.98 84.66 51 85 C51.00410889 85.84594727 51.00821777 86.69189453 51.01245117 87.56347656 C51.03974125 90.76230986 51.08914733 93.95989782 51.15258789 97.15820312 C51.17550211 98.5311335 51.19009991 99.90423301 51.19555664 101.27734375 C51.25562953 113.92037607 53.83069215 125.73059054 63 135 C74.25935848 144.35718017 85.40651802 148.29458308 100 147 C112.19116233 144.05380244 121.73865933 138.2824824 129 128 C133.21027911 120.44978371 134.98959457 113.7303838 135.10546875 105.08203125 C135.12029297 104.22029297 135.13511719 103.35855469 135.15039062 102.47070312 C135.17529149 100.68701516 135.18024467 98.90294564 135.16601562 97.11914062 C135.22814057 94.61343433 135.34621946 92.42106213 136 90 C138.875 87.578125 138.875 87.578125 142 86 C146.25806464 81.86330538 148.14048053 78.12893122 148.25 72.1875 C148.16422328 66.81475826 147.24488455 63.25549866 143.34765625 59.33984375 C138.07912447 54.62823922 133.99551855 53.52424585 126.9296875 53.58984375 C120.84448007 54.44177279 116.59958466 57.91569271 112.9375 62.6875 C111.1693498 68.93496403 110.91792119 75.31572173 113.5 81.375 C116.47436704 86.5668163 121.47169814 89.15723271 127 91 C127.82768713 112.87004077 127.82768713 112.87004077 123 121 C122.4225 122.051875 121.845 123.10375 121.25 124.1875 C115.79790126 131.00262342 109.63009032 136.00570127 101 138 C89.78478273 139.12279763 80.68688888 137.81237828 71.84765625 130.66015625 C65.43173696 124.89532391 60.52099235 118.47081795 59.68066406 109.64672852 C59.60754764 105.9025169 59.65042833 102.181012 59.75 98.4375 C59.76804687 97.14263672 59.78609375 95.84777344 59.8046875 94.51367188 C59.85150678 91.34166586 59.91707527 88.17123296 60 85 C60.928125 84.5978125 60.928125 84.5978125 61.875 84.1875 C64.2995233 83.04443152 64.2995233 83.04443152 66 80 C68.49702114 78.98485589 70.94712654 78.0951393 73.5 77.25 C80.50406323 74.77250515 86.26073923 71.8094364 92 67 C92.62003906 66.50242187 93.24007812 66.00484375 93.87890625 65.4921875 C103.48905743 56.93549808 109.50913248 43.56377242 110.32666016 30.83935547 C110.54708332 26.16538395 110.6214621 21.49073857 110.6875 16.8125 C110.72074405 15.17640618 110.75524 13.5403373 110.79101562 11.90429688 C110.87509854 7.93633757 110.94228323 3.96842679 111 0 C111.53657227 0.18973389 112.07314453 0.37946777 112.62597656 0.57495117 C118.27438788 2.52169233 123.91937705 4.02419959 129.75 5.3125 C130.6795752 5.52342285 131.60915039 5.7343457 132.56689453 5.95166016 C138.13505824 7.19924186 143.71488019 8.34235002 149.3203125 9.41015625 C170.26701113 13.43784594 192.78970742 18.64757276 206.32421875 36.7734375 C218.07656475 55.53270272 219.49346416 80.50952966 220 102 C220.02723145 102.96566895 220.05446289 103.93133789 220.08251953 104.92626953 C220.15932721 107.90920927 220.20954306 110.89136239 220.25 113.875 C220.27151123 114.79643799 220.29302246 115.71787598 220.31518555 116.66723633 C220.34624718 122.99853415 219.367956 127.09872058 215.265625 132.125 C208.6709142 138.2596147 201.41510913 141.23137117 193 144 C192.05302246 144.31469238 191.10604492 144.62938477 190.13037109 144.95361328 C172.97475362 150.55933955 155.82718489 154.29911616 138 157 C136.60773272 157.21458579 135.21548054 157.42926958 133.82324219 157.64404297 C117.09980249 160.20451768 100.3533954 162.3203413 83.5 163.8125 C82.80953583 163.87584534 82.11907166 163.93919067 81.40768433 164.00445557 C62.27009707 165.73053799 43.53923006 164.96029929 24.4375 163.125 C22.52155837 162.94841402 20.60554255 162.77263117 18.68945312 162.59765625 C13.12427484 162.08530943 7.56167403 161.54900293 2 161 C1.12382019 160.91370331 0.24764038 160.82740662 -0.65509033 160.73849487 C-9.72652179 159.83714558 -18.77251823 158.92860594 -27.75 157.3125 C-28.67917236 157.14661377 -29.60834473 156.98072754 -30.56567383 156.80981445 C-94.74960867 145.00281123 -94.74960867 145.00281123 -107.109375 129.32421875 C-110.39186455 123.38586192 -109.55084803 116.27504237 -109.4375 109.6875 C-109.43034973 108.95857544 -109.42319946 108.22965088 -109.41583252 107.4786377 C-109.15598259 81.96318598 -108.6049394 49.70766377 -90 30 C-75.18821937 18.03663872 -58.43974987 12.68102018 -39.875 9.5625 C-31.54140005 8.09244143 -23.30417743 6.49280013 -15.125 4.3125 C-14.36558105 4.11019775 -13.60616211 3.90789551 -12.82373047 3.69946289 C-8.69462244 2.5622768 -4.25272303 0 0 0 Z " fill="#01A7A7" transform="translate(198,273)"/>
<path d="M0 0 C7.30861003 5.66649965 13.89547403 12.26794324 19 20 C19.47050781 20.69738281 19.94101562 21.39476562 20.42578125 22.11328125 C27.92658853 34.92439457 29.74996023 56.89886549 26.48730469 71.25610352 C26.32649414 71.83158936 26.16568359 72.4070752 26 73 C26.9590625 73.4640625 26.9590625 73.4640625 27.9375 73.9375 C30 75 30 75 31 76 C30.96600724 80.49739017 30.65995005 84.9842042 30.38574219 89.47265625 C30.25142825 91.72603823 30.13705203 93.97986761 30.0234375 96.234375 C29.93873289 97.67194817 29.85283296 99.10945151 29.765625 100.546875 C29.69118164 101.85495117 29.61673828 103.16302734 29.54003906 104.51074219 C28.98564616 108.09274189 28.19013613 110.13769413 26 113 C23.20034321 113.66913403 20.91199859 113.23868841 18 113 C17.8453125 114.20076172 17.8453125 114.20076172 17.6875 115.42578125 C16.83801401 119.84214307 15.48261267 123.94799356 14 128.1875 C13.69892334 129.06027588 13.39784668 129.93305176 13.08764648 130.83227539 C10.84691886 137.12544296 8.09076215 142.99192757 5.0625 148.9375 C1.252563 156.56360193 -0.07946885 162.40876341 1 171 C1.146383 173.22913064 1.29223199 175.45829642 1.4375 177.6875 C1.70975505 181.48873039 1.70975505 181.48873039 3 185 C3.13616626 188.00636328 3.21285569 190.98826899 3.23828125 193.99609375 C3.246353 194.89940933 3.25442474 195.80272491 3.26274109 196.7334137 C3.27659321 198.65257851 3.2873103 200.57176807 3.29516602 202.4909668 C3.31224917 205.39486313 3.35610822 208.29758183 3.40039062 211.20117188 C3.52251892 225.73200714 1.64823017 237.56733596 -8.4375 248.6875 C-9.283125 249.450625 -10.12875 250.21375 -11 251 C-12.3303125 252.2375 -12.3303125 252.2375 -13.6875 253.5 C-17.63411416 256.71045815 -22.17048016 259.3927113 -27 261 C-31.4992 260.5008 -31.4992 260.5008 -33 259 C-35.49238569 258.87346802 -37.94470441 258.81480175 -40.4375 258.8125 C-41.13166016 258.80025391 -41.82582031 258.78800781 -42.54101562 258.77539062 C-44.36220901 258.77010158 -46.1828692 258.87830793 -48 259 C-48.66 259.66 -49.32 260.32 -50 261 C-59.2033254 260.76991687 -67.33093021 254.58488867 -73.73828125 248.51953125 C-77.39803492 244.44260359 -79.93159797 240.05824172 -82 235 C-82.40387939 234.07356689 -82.40387939 234.07356689 -82.81591797 233.12841797 C-85.87661949 224.90582621 -85.38267569 216.33465667 -85.28125 207.69287109 C-85.24975285 204.97870292 -85.24023644 202.26511514 -85.234375 199.55078125 C-85.22521676 197.82551369 -85.21484479 196.10025206 -85.203125 194.375 C-85.19887512 193.56361572 -85.19462524 192.75223145 -85.19024658 191.91625977 C-85.11730695 186.23461389 -85.11730695 186.23461389 -84 184 C-83.1346459 179.35740682 -82.5510831 174.68912675 -82 170 C-81.87625 169.04996094 -81.7525 168.09992188 -81.625 167.12109375 C-81.10955174 159.91555658 -83.68786008 154.87962832 -87.0625 148.66796875 C-92.4570688 138.6970785 -100 123.31900614 -100 112 C-101.093125 112.226875 -102.18625 112.45375 -103.3125 112.6875 C-107 113 -107 113 -108.68481445 111.76245117 C-110.95808148 108.71609612 -110.87206592 104.99220175 -111.1875 101.3125 C-111.26790527 100.47485107 -111.34831055 99.63720215 -111.43115234 98.77416992 C-112.13363725 90.83938576 -112.19763323 82.96022718 -112 75 C-110.02 74.01 -110.02 74.01 -108 73 C-108.33 72.01 -108.66 71.02 -109 70 C-109.99461219 46.98513656 -108.02561343 27.55439552 -92.8671875 9.453125 C-69.87657136 -15.14937936 -27.61975509 -18.8190019 0 0 Z " fill="#F6DECE" transform="translate(294,80)"/>
<path d="M0 0 C4.62 0 9.24 0 14 0 C14 6.27 14 12.54 14 19 C20.27 19 26.54 19 33 19 C33 23.62 33 28.24 33 33 C26.73 33 20.46 33 14 33 C14 39.27 14 45.54 14 52 C9.38 52 4.76 52 0 52 C0 45.73 0 39.46 0 33 C-6.27 33 -12.54 33 -19 33 C-19 28.38 -19 23.76 -19 19 C-12.73 19 -6.46 19 0 19 C0 12.73 0 6.46 0 0 Z " fill="#BDE6D3" transform="translate(159,338)"/>
<path d="M0 0 C2.87029869 1.79393668 4.49131638 2.98263276 6 6 C6.57884232 13.06187625 6.57884232 13.06187625 4.1875 16.9375 C1.34478523 19.61777392 -0.50725706 19.95437565 -4.375 20.3125 C-8.59334314 19.94884973 -10.04884992 18.95115008 -13 16 C-14.74601232 12.50797535 -14.55838804 8.81017721 -14 5 C-10.48991881 -0.54819285 -6.12196123 -1.23104655 0 0 Z " fill="#030404" transform="translate(332,335)"/>
</svg>
