<?xml version="1.0" encoding="UTF-8"?>
<svg version="1.1" xmlns="http://www.w3.org/2000/svg" width="503" height="503">
<path d="M0 0 C0.97775391 0.19867676 1.95550781 0.39735352 2.96289062 0.60205078 C42.51593428 8.87843217 79.31515192 24.73938716 111 50 C112.41732422 51.10021484 112.41732422 51.10021484 113.86328125 52.22265625 C125.78378994 61.67076313 137.27049552 72.29587284 147 84 C147.82242187 84.98484375 148.64484375 85.9696875 149.4921875 86.984375 C186.74810533 132.56043904 207.20324716 188.7734811 207.25 247.625 C207.25067474 248.39356323 207.25134949 249.16212646 207.25204468 249.95397949 C207.23285849 263.80605016 206.35035445 277.32733228 204 291 C203.83902832 291.94133789 203.67805664 292.88267578 203.51220703 293.85253906 C199.3384477 317.19512004 191.4959213 339.76576793 181 361 C180.63406738 361.74427246 180.26813477 362.48854492 179.89111328 363.25537109 C174.69478708 373.70996645 168.76027707 383.48744728 162 393 C161.54254395 393.6482373 161.08508789 394.29647461 160.61376953 394.96435547 C153.17900519 405.42100824 144.9584084 414.82963034 136 424 C135.40364746 424.61681641 134.80729492 425.23363281 134.19287109 425.86914062 C126.85726712 433.44470353 119.41860861 440.616424 111 447 C110.06559082 447.71639648 110.06559082 447.71639648 109.11230469 448.44726562 C97.3449358 457.41660328 85.06453266 465.06567353 72 472 C71.17725586 472.43940918 70.35451172 472.87881836 69.50683594 473.33154297 C45.23717481 486.09462044 18.93800219 493.47296021 -8 498 C-9.25852783 498.2160791 -9.25852783 498.2160791 -10.54248047 498.43652344 C-35.22330025 502.44629248 -62.46809189 501.19873852 -87 497 C-88.38807861 496.76651855 -88.38807861 496.76651855 -89.80419922 496.52832031 C-116.26782323 491.88037093 -141.27235677 482.43505108 -165 470 C-166.04148193 469.46342773 -166.04148193 469.46342773 -167.10400391 468.91601562 C-183.81571081 460.23209309 -199.08314128 448.61582548 -213 436 C-214.11967999 435.0024788 -215.23947242 434.0050838 -216.359375 433.0078125 C-257.00854182 396.48944144 -282.60978142 346.27589308 -293 293 C-293.16661133 292.17274414 -293.33322266 291.34548828 -293.50488281 290.49316406 C-299.13687558 261.19047704 -298.08691364 228.11439321 -292 199 C-291.82339844 198.09991211 -291.64679688 197.19982422 -291.46484375 196.27246094 C-283.00234807 153.66222806 -262.55232299 114.49910361 -234 82 C-233.23816406 81.12601562 -232.47632813 80.25203125 -231.69140625 79.3515625 C-222.84679595 69.35604926 -213.5079805 60.23365047 -203 52 C-201.55753906 50.83210938 -201.55753906 50.83210938 -200.0859375 49.640625 C-145.44292123 6.20288548 -68.92189763 -14.25837771 0 0 Z " fill="#BBE8DF" transform="translate(296,3)"/>
<path d="M0 0 C14.30163422 -0.59728403 23.48661848 0.44195291 34.8125 9.98046875 C37.52955843 12.48889591 39.7303992 15.08194182 42 18 C43.65130225 19.68487771 45.31787623 21.34632875 47 23 C49.79499842 25.76748645 52.58520211 28.53977255 55.375 31.3125 C56.46941406 32.3943457 56.46941406 32.3943457 57.5859375 33.49804688 C61.01351655 36.91032424 64.35245169 40.34489723 67.5078125 44.01171875 C71.28650981 48.4010873 75.36976829 52.44365436 79.5 56.5 C84.35192959 61.265133 89.0168484 66.08682046 93.45019531 71.24511719 C95.38244293 73.43304975 97.47787503 75.39964502 99.625 77.375 C104.8063063 82.52087856 109.07874738 88.48671712 109.5625 96 C108.86856555 105.05767069 104.24073001 111.75109274 98 118 C95.00624868 120.55482168 91.87389387 122.87951069 88.6875 125.1875 C87.81448242 125.83041992 86.94146484 126.47333984 86.04199219 127.13574219 C83.36827278 129.10020607 80.68506083 131.05107716 78 133 C76.41777286 134.15728431 74.8357328 135.31482445 73.25390625 136.47265625 C65.21309374 142.33582064 57.08838937 148.06554446 48.86035156 153.66308594 C45.78724796 155.65220847 45.78724796 155.65220847 43 158 C42.87624831 160.02414991 42.82202689 162.05257737 42.79467773 164.08032227 C42.77473251 165.38159561 42.75478729 166.68286896 42.73423767 168.02357483 C42.71725201 169.4545174 42.70037325 170.88546125 42.68359375 172.31640625 C42.66303094 173.7722992 42.64203466 175.22818609 42.62062073 176.68406677 C42.56533039 180.52272647 42.51595198 184.36144065 42.46777344 188.20019531 C42.41760909 192.11463288 42.36189664 196.02899096 42.30664062 199.94335938 C42.19897397 207.62883901 42.09754807 215.31438457 42 223 C16.35892581 231.87007535 16.35892581 231.87007535 3.1875 234.375 C1.95725098 234.61557129 0.72700195 234.85614258 -0.54052734 235.10400391 C-4.02239577 235.76693411 -7.50753145 236.39566728 -11 237 C-11.84771973 237.14695312 -12.69543945 237.29390625 -13.56884766 237.4453125 C-46.15809835 242.73271628 -81.27270474 239.1416889 -113 231 C-114.01449219 230.74202637 -115.02898437 230.48405273 -116.07421875 230.21826172 C-119.12617465 229.41841569 -122.1569729 228.56475125 -125.1875 227.6875 C-126.11457764 227.44032227 -127.04165527 227.19314453 -127.99682617 226.93847656 C-134.17275774 225.04032408 -134.17275774 225.04032408 -136.43310547 222.19775391 C-137.49581704 220.16004203 -138.2893822 218.18361152 -139 216 C-139.34546875 215.01 -139.6909375 214.02 -140.046875 213 C-146.21699698 186.67414622 -141.26504133 160.20007459 -128 137 C-125.54374056 133.13877953 -122.8857944 129.54919541 -120 126 C-119.34773438 125.17242187 -118.69546875 124.34484375 -118.0234375 123.4921875 C-110.60354432 114.62722149 -100.97404105 107.76743213 -91 102 C-91.15984375 100.70964844 -91.3196875 99.41929687 -91.484375 98.08984375 C-94.3767142 71.86904527 -94.3767142 71.86904527 -87.5 61.8046875 C-82.32523271 54.06741525 -82.32356465 46.82747327 -82.40185547 37.76708984 C-82.38896002 26.35461969 -78.03394136 18.02208686 -70.01171875 10.015625 C-64.22457806 4.7407171 -60.23923011 2.71593848 -52.25 3 C-46.4436904 3.09779048 -41.58399605 2.5404127 -36 1 C-35.72285156 2.12019531 -35.44570313 3.24039062 -35.16015625 4.39453125 C-34.79433333 5.86720302 -34.42844447 7.33985842 -34.0625 8.8125 C-33.88009766 9.55048828 -33.69769531 10.28847656 -33.50976562 11.04882812 C-32.7577385 14.07060984 -31.98514427 17.04456718 -31 20 C-25.83873789 21.92550397 -19.6547567 22.07464551 -14.55859375 20.01171875 C-6.82007336 15.36336894 -3.14974153 8.21862789 0 0 Z " fill="#00A6A6" transform="translate(299,264)"/>
<path d="M0 0 C6.09841433 5.39266311 11.39129315 11.29302011 16 18 C16.4125 17.48050781 16.825 16.96101563 17.25 16.42578125 C22.00912705 10.67871042 26.84167492 6.38610836 34 4 C45.89994343 3.04487296 55.78201709 4.70650577 65.15625 12.37109375 C65.7646875 12.90863281 66.373125 13.44617188 67 14 C67.6290625 14.54785156 68.258125 15.09570312 68.90625 15.66015625 C74.32758434 20.70245662 78.45247703 26.98625391 79.2734375 34.50390625 C79.50518765 41.48315105 78.54039078 47.27137419 76.5 53.875 C73.35088022 64.23980216 71.45398276 75.22908597 76.79296875 85.265625 C80.11229463 90.03514179 84.66434101 92.55083481 90.25 93.625 C91.61125 93.810625 91.61125 93.810625 93 94 C88.4769268 98.92216789 84.50201021 102.08196034 77.6875 102.4375 C70.35248975 102.15396179 63.85947907 98.74098081 58.5 93.828125 C52.1624342 86.10421668 50.94198468 74.75035863 50.125 65.125 C49.28429938 54.99771102 49.28429938 54.99771102 45 46 C39.05955535 41.32256881 33.37013093 40.4056346 26 41 C26.14002441 41.60513428 26.28004883 42.21026855 26.42431641 42.83374023 C31.64607566 66.82566945 26.28107826 90.38773488 13.39526367 110.99731445 C8.69449253 118.30550747 8.69449253 118.30550747 6 121 C5.01 121 4.02 121 3 121 C3 120.34 3 119.68 3 119 C2.41347656 118.73832031 1.82695312 118.47664062 1.22265625 118.20703125 C-4.41484617 115.14554048 -9.72054085 109.31965222 -11.55493164 103.12646484 C-12.0137446 100.9343305 -12.17344688 98.90119469 -12.24609375 96.6640625 C-12.27896484 95.84679687 -12.31183594 95.02953125 -12.34570312 94.1875 C-12.40661666 92.48710505 -12.46394255 90.78657758 -12.51757812 89.0859375 C-12.71270841 84.40281057 -13.09638735 80.36302462 -15 76 C-16.71380616 74.96442703 -16.71380616 74.96442703 -19 75 C-20.11375 74.87625 -21.2275 74.7525 -22.375 74.625 C-27.06300389 75.10996592 -28.77849255 76.62865499 -32 80 C-33.96535017 83.91709929 -34.36149396 87.46465037 -34.625 91.8125 C-34.69976562 92.97394531 -34.77453125 94.13539063 -34.8515625 95.33203125 C-34.92503906 96.65267578 -34.92503906 96.65267578 -35 98 C-37.60800821 95.64644335 -39.14230746 93.18752179 -40.8203125 90.11328125 C-41.3565625 89.17548828 -41.8928125 88.23769531 -42.4453125 87.27148438 C-43.56449795 85.29989605 -44.66102009 83.31526845 -45.734375 81.31835938 C-48.50149287 76.15979101 -48.50149287 76.15979101 -53.29589844 73.32177734 C-56.37631157 73.2845499 -59.05459602 73.74964872 -62.02368164 74.53588867 C-65.48151424 75.34791335 -69.02869635 75.1439441 -72.5625 75.125 C-73.7676123 75.1264502 -73.7676123 75.1264502 -74.99707031 75.12792969 C-79.47890004 75.10810656 -83.80169973 74.85128748 -88.25 74.25 C-91.78769034 73.841176 -93.68781589 73.96311208 -96.6875 75.9375 C-97.450625 76.618125 -98.21375 77.29875 -99 78 C-98.34 80.64 -97.68 83.28 -97 86 C-104.91790294 85.67008738 -109.40491564 81.71304274 -114.75 76.125 C-120.63946843 67.94518274 -123.07099886 60.1084687 -122 50 C-120.30470241 44.01814684 -117.56260749 39.07401673 -114 34 C-113.22007718 32.54650747 -112.45000143 31.08770698 -111.6875 29.625 C-101.69564708 11.65166698 -80.24851825 -0.34879569 -61 -6 C-40.17757358 -11.81764379 -18.18457305 -13.59485653 0 0 Z " fill="#2A3034" transform="translate(292,115)"/>
<path d="M0 0 C4.28758184 0.50995488 8.5068654 0.53641923 12.8203125 0.52734375 C13.60188721 0.53145264 14.38346191 0.53556152 15.1887207 0.53979492 C18.77370359 0.53241282 21.93041878 0.29973335 25.3828125 -0.59765625 C28.53234582 -1.15463161 31.25369434 -1.34960425 34.3828125 -0.59765625 C36.9981274 1.69498503 38.52309684 4.44285761 40.1953125 7.46484375 C40.64583984 8.21701172 41.09636719 8.96917969 41.56054688 9.74414062 C42.86983196 11.94534044 44.13120897 14.16794756 45.3828125 16.40234375 C46.15659242 17.75575745 46.93124292 19.10867404 47.70703125 20.4609375 C48.53654297 21.91693359 48.53654297 21.91693359 49.3828125 23.40234375 C49.42019531 22.60570312 49.45757812 21.8090625 49.49609375 20.98828125 C49.97571199 13.25796375 50.62392504 8.28663519 56.1328125 2.52734375 C59.97475189 0.01530646 61.87743494 -0.18168667 66.3828125 0.40234375 C69.5057072 1.2698145 70.21485332 2.13668554 71.9609375 4.8984375 C73.75656668 9.32338084 73.83107534 13.11328418 73.8828125 17.83984375 C73.97378595 26.11192948 74.90767158 32.20072076 80.7578125 38.52734375 C81.36367188 39.19765625 81.96953125 39.86796875 82.59375 40.55859375 C84.11422836 42.12554962 85.73964179 43.58956938 87.3828125 45.02734375 C88.3728125 46.20296875 88.3728125 46.20296875 89.3828125 47.40234375 C89.21910156 48.26730469 89.05539062 49.13226563 88.88671875 50.0234375 C88.23701575 54.37997314 89.17379502 57.64336716 90.3203125 61.83984375 C92.71339093 70.72503594 93.24130001 76.80391689 88.73046875 85.109375 C85.38436685 90.80259765 81.55110462 94.85502858 75.3828125 97.40234375 C70.40454486 98.13488163 65.68987151 98.26457192 61.3828125 95.40234375 C57.48647166 89.66297185 56.66584203 83.18090105 56.3828125 76.40234375 C55.1865625 76.89734375 53.9903125 77.39234375 52.7578125 77.90234375 C44.74598245 80.52669123 35.83473327 80.9822013 28.0703125 77.40234375 C18.43114891 71.73874354 11.86190234 64.10645381 6.3828125 54.40234375 C6.3828125 53.74234375 6.3828125 53.08234375 6.3828125 52.40234375 C7.7028125 51.74234375 9.0228125 51.08234375 10.3828125 50.40234375 C10.3828125 49.08234375 10.3828125 47.76234375 10.3828125 46.40234375 C6.9178125 46.89734375 6.9178125 46.89734375 3.3828125 47.40234375 C-4.05643084 33.81141841 -9.1296173 18.85998062 -14.6171875 4.40234375 C-9.47224331 -0.28527207 -6.79273631 -0.99336673 0 0 Z " fill="#F5DCCD" transform="translate(206.6171875,188.59765625)"/>
<path d="M0 0 C0 1.65 0 3.3 0 5 C0.64324219 4.72285156 1.28648437 4.44570313 1.94921875 4.16015625 C9.40665343 1.17079941 15.97917638 0.34498166 24 0 C24 3.96 24 7.92 24 12 C22.2675 12.20625 20.535 12.4125 18.75 12.625 C7.62649138 14.50078035 -2.48679305 19.95695029 -9.4921875 28.90625 C-16.03554892 38.66321496 -16.59438848 48.60091758 -17 60 C-16.13834229 59.99214478 -16.13834229 59.99214478 -15.25927734 59.98413086 C-12.63119623 59.96321424 -10.00313271 59.95029341 -7.375 59.9375 C-6.01955078 59.92493164 -6.01955078 59.92493164 -4.63671875 59.91210938 C0.02904289 59.89508105 4.41013285 60.03170577 9 61 C9 64.63 9 68.26 9 72 C7.60910156 71.96519531 6.21820313 71.93039062 4.78515625 71.89453125 C-22.41259362 71.41538235 -44.26968588 76.54864265 -64.6953125 95.734375 C-65.45585937 96.48203125 -66.21640625 97.2296875 -67 98 C-67.69867188 98.68578125 -68.39734375 99.3715625 -69.1171875 100.078125 C-85.4041942 117.18898807 -90.67041539 139.49577365 -90.25 162.46875 C-89.87689731 173.31857614 -87.99204629 183.25650964 -82.890625 192.9609375 C-82.59671875 193.63382813 -82.3028125 194.30671875 -82 195 C-82.33 195.66 -82.66 196.32 -83 197 C-93.47782511 194.4958657 -93.47782511 194.4958657 -96.58203125 191.4453125 C-97.72422359 189.32474823 -98.37233521 187.32713145 -99 185 C-99.29261719 184.07960938 -99.58523437 183.15921875 -99.88671875 182.2109375 C-106.8619128 156.26700308 -101.07231552 128.86300416 -88 106 C-85.54374056 102.13877953 -82.8857944 98.54919541 -80 95 C-79.34773438 94.17242187 -78.69546875 93.34484375 -78.0234375 92.4921875 C-70.60354432 83.62722149 -60.97404105 76.76743213 -51 71 C-51.15984375 69.70964844 -51.3196875 68.41929687 -51.484375 67.08984375 C-52.71105247 55.96927298 -53.75866637 43.38254481 -49 33 C-48.5978125 32.113125 -48.195625 31.22625 -47.78125 30.3125 C-40.60661486 15.96322973 -29.57909707 6.90028705 -14.5078125 1.7265625 C-9.55580875 0.29186983 -5.16609079 -0.1012959 0 0 Z " fill="#374951" transform="translate(259,295)"/>
<path d="M0 0 C5.15604557 3.60262159 8.02235747 8.53810862 9.375 14.625 C10.40783474 25.42281774 8.39227329 33.33038868 1.5 41.75 C-7.8348804 51.58108667 -20.61345192 57.33766658 -34.0625 58 C-38.64985212 57.92540891 -41.5550328 57.35324958 -45.0703125 54.359375 C-52.97504219 45.54103333 -57.39151956 34.08257301 -56.94921875 22.29296875 C-56.26759153 16.68391582 -53.74102554 13.31522979 -49.625 9.625 C-49.955 9.295 -50.285 8.965 -50.625 8.625 C-51 5.8125 -51 5.8125 -50.625 2.625 C-37.87253406 -10.92449506 -14.80097765 -8.45379315 0 0 Z " fill="#F4DCCC" transform="translate(294.625,426.375)"/>
<path d="M0 0 C2.90543872 1.31376917 4.96661059 2.72056492 7.20800781 4.98095703 C7.80832825 5.58142853 8.40864868 6.18190002 9.02716064 6.80056763 C9.66272888 7.44645844 10.29829712 8.09234924 10.953125 8.7578125 C11.61334656 9.42086395 12.27356812 10.08391541 12.95379639 10.76705933 C15.05727824 12.88171832 17.15369142 15.00323212 19.25 17.125 C20.67662261 18.56165557 22.10370072 19.99785898 23.53125 21.43359375 C27.02613661 24.95050804 30.51470062 28.47358547 34 32 C30.25743903 36.53831868 26.3763446 40.66198857 21.98828125 44.57421875 C17.24253803 48.88171531 12.62460137 53.28726498 8.10546875 57.83203125 C7.53579376 58.40492889 6.96611877 58.97782654 6.37918091 59.56808472 C4.64666624 61.31430071 2.91663292 63.06293563 1.1875 64.8125 C-11.80260462 77.95375696 -11.80260462 77.95375696 -18.2668457 83.43237305 C-20.12312125 85.11136238 -21.74489844 86.89295324 -23.38671875 88.78125 C-32.04596343 98.64984309 -32.04596343 98.64984309 -37.79296875 99.6796875 C-41.01908483 99.40527414 -43.90479728 98.93575896 -47 98 C-45.03164059 94.48536282 -42.95950125 91.71707461 -40.09863281 88.88745117 C-38.93161835 87.72550484 -38.93161835 87.72550484 -37.74102783 86.54008484 C-36.48476593 85.30401237 -36.48476593 85.30401237 -35.203125 84.04296875 C-33.90263214 82.75027824 -33.90263214 82.75027824 -32.5758667 81.43147278 C-29.80528976 78.67868388 -27.02813216 75.9326623 -24.25 73.1875 C-21.48699046 70.45222667 -18.72549335 67.71547009 -15.96697998 64.97566223 C-14.25238345 63.27319101 -12.53512141 61.57339859 -10.8147583 59.87675476 C-6.52048275 55.61795214 -2.40678636 51.280511 1.53500366 46.6933136 C3.19950589 44.76940145 4.93880369 42.94632777 6.74609375 41.15625 C7.35517578 40.55039062 7.96425781 39.94453125 8.59179688 39.3203125 C9.20087891 38.71960938 9.80996094 38.11890625 10.4375 37.5 C11.07365234 36.86835938 11.70980469 36.23671875 12.36523438 35.5859375 C13.90782806 34.05494226 15.45357314 32.52712333 17 31 C13.84918206 27.20033967 10.66007076 23.59447228 7.09765625 20.17578125 C6.43572266 19.53962891 5.77378906 18.90347656 5.09179688 18.24804688 C3.7187408 16.93842362 2.33828535 15.63652166 0.95117188 14.34179688 C0.29826172 13.70951172 -0.35464844 13.07722656 -1.02734375 12.42578125 C-1.62281006 11.86286377 -2.21827637 11.29994629 -2.83178711 10.7199707 C-4 9 -4 9 -3.78344727 6.95776367 C-2.78282181 4.45729141 -1.4477125 2.26598478 0 0 Z " fill="#364850" transform="translate(312,322)"/>
<path d="M0 0 C0.63231095 5.32035379 1.25028755 10.72814022 0 16 C-2.50976166 19.04914026 -5.54508993 20.33009365 -9.07763672 21.99462891 C-13.07056754 24.08288 -16.688755 26.79587163 -20.375 29.375 C-22.01363117 30.50230825 -23.65294833 31.62862005 -25.29296875 32.75390625 C-31.20191213 36.82643212 -37.10646023 40.90520666 -43 45 C-43.66 44.67 -44.32 44.34 -45 44 C-44.401875 43.34 -43.80375 42.68 -43.1875 42 C-39.98659577 37.61018848 -38.2799392 33.0908733 -37.55859375 27.703125 C-35.95158552 22.07559245 -30.34639834 19.57437242 -25.6875 16.625 C-23.68724246 15.314195 -21.68724165 14.00299815 -19.6875 12.69140625 C-18.71425781 12.06250488 -17.74101562 11.43360352 -16.73828125 10.78564453 C-13.1652043 8.45562627 -9.67106 6.02346165 -6.1875 3.5625 C-1.1160221 0 -1.1160221 0 0 0 Z " fill="#374A52" transform="translate(341,422)"/>
<path d="M0 0 C0.66 0.33 1.32 0.66 2 1 C1.38125 1.2475 0.7625 1.495 0.125 1.75 C-2.44362062 3.26095331 -2.73597561 4.349322 -4 7 C-4.95658745 8.45947913 -5.91507929 9.91771104 -6.875 11.375 C-14.09858742 23.52054159 -14.55906748 35.30284664 -14 49 C-15.26839526 49.50615298 -16.53983102 50.00469099 -17.8125 50.5 C-18.52019531 50.7784375 -19.22789062 51.056875 -19.95703125 51.34375 C-22 52 -22 52 -25 52 C-28.48745258 42.6274712 -28.08361891 32.75257293 -24.25390625 23.55859375 C-18.98757554 12.81265414 -11.21975482 4.52726949 0 0 Z " fill="#02A3A3" transform="translate(245,309)"/>
<path d="M0 0 C1.32 1.32 2.64 2.64 4 4 C1.02365522 12.6299042 -7.06997957 18.88100881 -15 23 C-21.9735559 25.70966615 -28.56645299 26.43537043 -36 26 C-37.38226016 23.23547967 -37.09525387 20.9538637 -37.0625 17.875 C-37.05347656 16.77929688 -37.04445312 15.68359375 -37.03515625 14.5546875 C-37.02355469 13.71164062 -37.01195312 12.86859375 -37 12 C-36.67 12 -36.34 12 -36 12 C-36 14.31 -36 16.62 -36 19 C-22.65747862 18.67529262 -12.53227232 13.13986317 -3 4 C-1.96348938 2.69484732 -0.94803666 1.37076776 0 0 Z " fill="#DDAC97" transform="translate(275,434)"/>
<path d="M0 0 C1.5625 1.25 1.5625 1.25 3 3 C2.57267504 8.45661097 -1.96781716 13.0964925 -5.7890625 16.67578125 C-15.74693416 24.60519757 -26.73047903 27.10646038 -39 29 C-41.62386487 25.93882432 -42 25.26826873 -42 21 C-41.21238281 20.98582031 -40.42476562 20.97164063 -39.61328125 20.95703125 C-25.17199439 20.32469088 -13.99103295 15.48746986 -4.05078125 4.9296875 C-2.65624729 3.32386051 -1.32012956 1.66753208 0 0 Z " fill="#E0AD97" transform="translate(287,450)"/>
<path d="M0 0 C1.3096875 -0.01417969 2.619375 -0.02835937 3.96875 -0.04296875 C7.17108832 0.16603342 8.85158038 0.47818836 11.5 2.1875 C10.87996094 2.21585937 10.25992188 2.24421875 9.62109375 2.2734375 C1.99918139 3.09442952 -2.97556847 6.03718557 -9.01977539 10.46826172 C-13.35181633 13.61105749 -17.41420208 15.48849584 -22.5 17.1875 C-24.5 15.1875 -24.5 15.1875 -24.9375 12.3125 C-24.5 9.1875 -24.5 9.1875 -22.5 7.0625 C-14.85546179 2.28466362 -9.10434828 0.04480486 0 0 Z " fill="#E7C1AD" transform="translate(268.5,419.8125)"/>
<path d="M0 0 C4.05588343 4.26935098 4.9065887 8.30191044 5 14 C4 16 4 16 2 17 C-1.5 17.5 -1.5 17.5 -5 17 C-6.8125 14.75 -6.8125 14.75 -8 12 C-8.391875 11.34 -8.78375 10.68 -9.1875 10 C-10.21644169 7.46722046 -10.34744131 5.7100422 -10 3 C-7.66164316 -0.98896167 -4.22462076 -0.66704538 0 0 Z " fill="#6B2719" transform="translate(217,199)"/>
<path d="M0 0 C-1.88949679 6.57029564 -3.98313912 10.98313912 -8.875 15.875 C-11 17 -11 17 -13.9375 17 C-17.68614714 15.77595196 -19.43620547 13.94082313 -22 11 C-21 8 -21 8 -19.17407227 6.92504883 C-18.00702759 6.44588013 -18.00702759 6.44588013 -16.81640625 5.95703125 C-15.54893555 5.43012695 -15.54893555 5.43012695 -14.25585938 4.89257812 C-13.36705078 4.53615234 -12.47824219 4.17972656 -11.5625 3.8125 C-10.67755859 3.44447266 -9.79261719 3.07644531 -8.88085938 2.69726562 C-2.31034033 0 -2.31034033 0 0 0 Z " fill="#DF293A" transform="translate(244,245)"/>
<path d="M0 0 C-0.25 2.375 -0.25 2.375 -1 5 C-2.8125 6.375 -2.8125 6.375 -5 7 C-7.25 6.625 -7.25 6.625 -9 6 C-8.75 3.625 -8.75 3.625 -8 1 C-5.12800349 -1.17875597 -3.33791789 -1.19211353 0 0 Z " fill="#C16F58" transform="translate(218,235)"/>
</svg>
