<?xml version="1.0" encoding="UTF-8"?>
<svg version="1.1" xmlns="http://www.w3.org/2000/svg" width="955" height="535">
<path d="M0 0 C315.15 0 630.3 0 955 0 C955 176.55 955 353.1 955 535 C639.85 535 324.7 535 0 535 C0 358.45 0 181.9 0 0 Z " fill="#FEFEFE" transform="translate(0,0)"/>
<path d="M0 0 C9.23726598 7.98638621 16.71372012 17.67627862 19.25 29.89453125 C19.47321828 33.64159708 19.43514551 37.39146711 19.4375 41.14453125 C19.44974609 42.15644531 19.46199219 43.16835937 19.47460938 44.2109375 C19.52240248 68.77659146 3.15094303 88.4105788 -10.9375 107.14453125 C-12.43774023 109.14634574 -13.93759927 111.14844432 -15.43701172 113.15087891 C-16.5425208 114.61899825 -17.662233 116.07640701 -18.78515625 117.53125 C-26.50164348 127.88435017 -31.38268248 139.86391647 -35.125 152.14453125 C-35.36355713 152.92296387 -35.60211426 153.70139648 -35.84790039 154.50341797 C-39.1326789 165.90220483 -40.11634387 177.25617471 -40.0625 189.08203125 C-40.05831055 190.34781006 -40.05412109 191.61358887 -40.04980469 192.91772461 C-39.8775711 207.28365459 -37.95482659 220.42010708 -32.75 233.89453125 C-30.44 234.22453125 -28.13 234.55453125 -25.75 234.89453125 C-25.75 207.83453125 -25.75 180.77453125 -25.75 152.89453125 C-5.95 152.89453125 13.85 152.89453125 34.25 152.89453125 C34.25 179.95453125 34.25 207.01453125 34.25 234.89453125 C62.63 234.89453125 91.01 234.89453125 120.25 234.89453125 C120.25 255.35453125 120.25 275.81453125 120.25 296.89453125 C91.87 296.89453125 63.49 296.89453125 34.25 296.89453125 C34.58 300.85453125 34.91 304.81453125 35.25 308.89453125 C66.92429898 323.16801281 103.05981058 325.77780305 136.01464844 313.79248047 C148.72350997 308.93054946 160.12308533 302.70634745 171.25 294.89453125 C173.24366116 293.55140862 175.2462138 292.22255377 177.25 290.89453125 C177.94140625 292.66796875 177.94140625 292.66796875 178.25 294.89453125 C165.27572872 314.90199335 132.20315009 326.44360224 110.47631836 331.54589844 C102.33358877 333.12159575 94.25666827 333.2009597 85.99536133 333.15527344 C83.68739664 333.14453077 81.38020719 333.15524068 79.07226562 333.16796875 C70.94012975 333.17588135 63.20319127 332.73254951 55.25 330.89453125 C53.33380859 330.52134766 53.33380859 330.52134766 51.37890625 330.140625 C27.63614152 324.75754472 6.98196267 312.29183006 -10.75 295.89453125 C-11.58144531 295.13398438 -12.41289062 294.3734375 -13.26953125 293.58984375 C-34.73732499 273.06197093 -50.5031329 241.39612481 -51.91113281 211.46972656 C-52.29482716 177.23169862 -52.29482716 177.23169862 -48.75 163.89453125 C-48.56727539 163.18973633 -48.38455078 162.48494141 -48.19628906 161.75878906 C-43.35842043 143.86105832 -34.46089567 127.210127 -22.75 112.89453125 C6.722771 76.21089372 6.722771 76.21089372 13.25 30.89453125 C12.43797407 26.83896355 11.24051978 23.50971204 9.25 19.89453125 C8.82589844 19.11207031 8.40179688 18.32960938 7.96484375 17.5234375 C0.02357044 4.40595819 -12.32874613 -1.46324081 -26.75 -5.10546875 C-27.47832031 -5.29109375 -28.20664063 -5.47671875 -28.95703125 -5.66796875 C-46.11207443 -8.3551923 -64.21966364 -5.68601055 -79.75 1.89453125 C-80.66136719 2.31347656 -81.57273437 2.73242188 -82.51171875 3.1640625 C-90.45324675 7.0951755 -96.56687677 12.67658579 -102.75 18.89453125 C-103.55566406 19.70019531 -104.36132812 20.50585938 -105.19140625 21.3359375 C-134.9016974 52.69967094 -144.73100292 99.61923419 -143.96875 141.35546875 C-143.14027628 170.21120852 -136.21042595 199.72352735 -118.5625 223.08203125 C-118.14645508 223.63528076 -117.73041016 224.18853027 -117.30175781 224.75854492 C-115.09738606 227.56695689 -113.24530253 229.86479482 -109.75 230.89453125 C-106.75007271 229.60308147 -106.75007271 229.60308147 -103.75 227.89453125 C-92.34437543 224.91915093 -80.77366337 226.40647494 -70.578125 232.109375 C-63.04388846 237.14680059 -56.5403555 245.599206 -54.15625 254.3984375 C-52.23737331 266.18845873 -53.74013379 276.92262618 -60.8046875 286.75390625 C-68.59225542 295.86185766 -77.09803107 300.88352305 -89.13671875 302.14453125 C-100.57612108 302.4639561 -110.45644816 298.65741542 -118.859375 290.94921875 C-127.47263248 281.58852984 -129.35238567 271.24567477 -129.0625 259 C-128.63438037 251.11367963 -124.97627537 245.72337413 -120.1171875 239.71875 C-118.72273712 237.85815478 -117.72605335 236.00001776 -116.75 233.89453125 C-117.306875 233.32347656 -117.86375 232.75242187 -118.4375 232.1640625 C-145.65750177 203.24281062 -150.52884229 163.08037291 -149.84765625 125.03613281 C-149.01836721 98.35790427 -142.44152216 72.83320069 -130.75 48.89453125 C-130.18410156 47.73308594 -129.61820313 46.57164063 -129.03515625 45.375 C-117.63520274 23.19203164 -100.10042373 2.48663194 -76.2109375 -6.42578125 C-73.07290317 -7.39965397 -69.92926811 -8.27780804 -66.75 -9.10546875 C-65.491875 -9.49734375 -64.23375 -9.88921875 -62.9375 -10.29296875 C-42.32161989 -15.54799701 -17.19019092 -13.16123992 0 0 Z " fill="#4FD0E1" transform="translate(230.75,64.10546875)"/>
<path d="M0 0 C3.66602281 2.93281825 6.71542646 5.71542646 10 9 C23.00483799 21.69851418 39.85264656 31.28421552 57 37 C57 51.85 57 66.7 57 82 C38.19 82 19.38 82 0 82 C0 54.94 0 27.88 0 0 Z " fill="#04A8A8" transform="translate(206,359)"/>
<path d="M0 0 C12.54 0 25.08 0 38 0 C38 2.97 38 5.94 38 9 C29.09 9 20.18 9 11 9 C11 12.63 11 16.26 11 20 C18.92 20 26.84 20 35 20 C35 23.3 35 26.6 35 30 C27.41 30 19.82 30 12 30 C12 33.63 12 37.26 12 41 C21.24 41 30.48 41 40 41 C40.33 41.99 40.66 42.98 41 44 C41.23581284 43.47826202 41.47162567 42.95652405 41.71458435 42.41897583 C44.16349552 37.00094465 46.61295788 31.58316291 49.06274414 26.16552734 C49.97759996 24.14215417 50.89231402 22.11871689 51.80688477 20.09521484 C53.11958369 17.19091295 54.43278806 14.28684006 55.74609375 11.3828125 C56.36175453 10.02024826 56.36175453 10.02024826 56.98985291 8.63015747 C57.37017166 7.78943695 57.75049042 6.94871643 58.14233398 6.08251953 C58.47764633 5.34083527 58.81295868 4.599151 59.15843201 3.83499146 C59.74958909 2.54600685 60.3658158 1.26836841 61 0 C65.29 0 69.58 0 74 0 C74.73319458 1.64029175 74.73319458 1.64029175 75.48120117 3.3137207 C77.31663043 7.41966949 79.1525137 11.52541514 80.98852539 15.63110352 C81.77901143 17.39895286 82.56937876 19.16685529 83.35961914 20.93481445 C84.12736484 22.65240873 84.89527681 24.36992871 85.6633606 26.08737183 C86.41267783 27.76291521 87.16160357 29.43863374 87.91012573 31.11453247 C90.30086287 36.46088194 92.72960734 41.78790554 95.21606445 47.09057617 C96 49 96 49 96 51 C91.71 51 87.42 51 83 51 C81.68 47.7 80.36 44.4 79 41 C71.08 40.67 63.16 40.34 55 40 C54.01 42.97 53.02 45.94 52 49 C51.505 49.99 51.505 49.99 51 51 C34.17 51 17.34 51 0 51 C0 34.17 0 17.34 0 0 Z " fill="#F0722B" transform="translate(619,223)"/>
<path d="M0 0 C7.1775 -0.12375 7.1775 -0.12375 14.5 -0.25 C15.99337891 -0.28641602 17.48675781 -0.32283203 19.02539062 -0.36035156 C26.4928317 -0.42261371 31.74654394 -0.2398888 38 4 C42.41654714 8.3542634 44.15780466 11.57291217 44.25 17.75 C44.19778552 22.6001453 43.92396421 25.96694591 41 30 C38.3125 32.375 38.3125 32.375 36 34 C36.62016208 38.06550699 38.75754015 40.84998319 41.0625 44.1875 C45 49.91036907 45 49.91036907 45 51 C40.46736243 51.74622692 36.49902099 52.04258135 32 51 C28.46719344 47.43017301 26.27240242 43.44905756 24 39 C22.26043342 37.26043342 19.8063378 37.62809614 17.4375 37.4375 C15.643125 37.293125 13.84875 37.14875 12 37 C12 41.62 12 46.24 12 51 C8.04 51 4.08 51 0 51 C0 34.17 0 17.34 0 0 Z " fill="#F07129" transform="translate(363,223)"/>
<path d="M0 0 C3.3 0 6.6 0 10 0 C10 17.16 10 34.32 10 52 C6.04 52 2.08 52 -2 52 C-2.33 42.76 -2.66 33.52 -3 24 C-5.78201535 28.9501617 -5.78201535 28.9501617 -8.56347656 33.90063477 C-11.02438417 38.27750286 -13.50382598 42.6431458 -16 47 C-18.7878418 47.28271484 -18.7878418 47.28271484 -22 47 C-23.85864258 45.10400391 -23.85864258 45.10400391 -25.39453125 42.4765625 C-25.95720703 41.538125 -26.51988281 40.5996875 -27.09960938 39.6328125 C-27.66486328 38.64023437 -28.23011719 37.64765625 -28.8125 36.625 C-29.39708984 35.64015625 -29.98167969 34.6553125 -30.58398438 33.640625 C-34.44933623 27.10132754 -34.44933623 27.10132754 -36 24 C-36.33 33.24 -36.66 42.48 -37 52 C-40.63 52 -44.26 52 -48 52 C-48 35.17 -48 18.34 -48 1 C-44.7 1 -41.4 1 -38 1 C-35.59067324 3.54317824 -34.40625908 5.17411314 -32.875 8.1875 C-32.46958984 8.90550781 -32.06417969 9.62351563 -31.64648438 10.36328125 C-30.81352868 11.83887726 -29.99480085 13.32259439 -29.19042969 14.81396484 C-27.39721707 18.10691518 -25.45583066 21.30197703 -23.5 24.5 C-22.8709375 25.5621875 -22.241875 26.624375 -21.59375 27.71875 C-21.0678125 28.4715625 -20.541875 29.224375 -20 30 C-19.34 30 -18.68 30 -18 30 C-16.60907847 27.92253018 -15.35319153 25.86136976 -14.12109375 23.69140625 C-13.74896255 23.05009262 -13.37683136 22.40877899 -12.99342346 21.74803162 C-11.80106868 19.69016748 -10.61900982 17.62660653 -9.4375 15.5625 C-8.25043238 13.50317385 -7.06130805 11.44505654 -5.87086487 9.38768005 C-5.12946521 8.10478196 -4.39042365 6.82051778 -3.65391541 5.5348053 C-1.10883651 1.10883651 -1.10883651 1.10883651 0 0 Z " fill="#F0732D" transform="translate(482,222)"/>
<path d="M0 0 C4.7595253 3.59410883 8.77991859 8.01942237 10 14 C10.78469546 21.66058946 10.88816595 28.72135869 6 35 C0.56292862 40.76619192 -4.82760014 44.13266926 -12.875 44.375 C-20.16553534 44.14970534 -25.26552742 42.85381369 -30.75 37.9375 C-35.50455249 32.76950816 -38.09200326 26.50792517 -38.5625 19.5 C-38.19382669 12.55665266 -34.76488637 6.28514357 -29.75 1.5625 C-20.47700285 -5.55351738 -10.03631859 -5.47728462 0 0 Z " fill="#02A7A7" transform="translate(153,308)"/>
<path d="M0 0 C7.1775 -0.12375 7.1775 -0.12375 14.5 -0.25 C15.99337891 -0.28641602 17.48675781 -0.32283203 19.02539062 -0.36035156 C26.4928317 -0.42261371 31.74654394 -0.2398888 38 4 C42.41654714 8.3542634 44.15780466 11.57291217 44.25 17.75 C44.19778552 22.6001453 43.92396421 25.96694591 41 30 C35.53478857 35.3134 29.79224388 37.36043093 22.34179688 37.26367188 C21.58962891 37.23853516 20.83746094 37.21339844 20.0625 37.1875 C18.89364258 37.16719727 18.89364258 37.16719727 17.70117188 37.14648438 C15.80047596 37.11150224 13.90014166 37.05770959 12 37 C12 41.62 12 46.24 12 51 C8.04 51 4.08 51 0 51 C0 34.17 0 17.34 0 0 Z " fill="#F07129" transform="translate(313,223)"/>
<path d="M0 0 C3.96 0 7.92 0 12 0 C12 6.6 12 13.2 12 20 C19.59 20 27.18 20 35 20 C35 13.4 35 6.8 35 0 C38.96 0 42.92 0 47 0 C47 16.83 47 33.66 47 51 C43.04 51 39.08 51 35 51 C35 44.07 35 37.14 35 30 C27.41 30 19.82 30 12 30 C12 36.93 12 43.86 12 51 C8.04 51 4.08 51 0 51 C0 34.17 0 17.34 0 0 Z " fill="#F07028" transform="translate(563,223)"/>
<path d="M0 0 C12.87 0 25.74 0 39 0 C39 2.97 39 5.94 39 9 C30.09 9 21.18 9 12 9 C12 12.63 12 16.26 12 20 C19.92 20 27.84 20 36 20 C36 23.3 36 26.6 36 30 C28.08 30 20.16 30 12 30 C12 33.63 12 37.26 12 41 C21.24 41 30.48 41 40 41 C40 44.3 40 47.6 40 51 C26.8 51 13.6 51 0 51 C0 34.17 0 17.34 0 0 Z " fill="#F0742D" transform="translate(500,223)"/>
<path d="M0 0 C8.40539509 4.7577708 13.00343361 11.73632497 16.375 20.625 C17.95810706 29.1737781 16.76811401 36.14050215 13 44 C7.60367559 51.73932578 1.89736014 56.03421329 -7 59 C-17.58240318 59.90087268 -26.30816532 59.91706216 -35 53 C-41.16100406 47.20738587 -45.33909843 40.24908362 -46.40625 31.7734375 C-46.69957538 21.14039255 -43.93254083 13.10844336 -36.875 5.0625 C-26.33490901 -4.43056208 -12.68029182 -5.19076273 0 0 Z M-35 14 C-38.65668277 19.64468214 -40.08508976 25.34403707 -39 32 C-36.95822632 39.86505721 -33.21925384 45.84364778 -26.19140625 50.09375 C-19.81569953 52.95685323 -12.04232501 53.38858493 -5.44140625 51.12109375 C0.54615047 48.0616845 5.17138043 43.73893006 8.13671875 37.67578125 C10.14746155 31.44338842 10.17276313 23.668283 7.5 17.625 C3.72382627 11.33580925 -2.07327526 6.62527273 -9.0703125 4.43359375 C-19.23336336 2.14999325 -28.40302757 6.31594182 -35 14 Z " fill="#F7FCFD" transform="translate(154,300)"/>
<path d="M0 0 C3.96 0 7.92 0 12 0 C12 13.53 12 27.06 12 41 C20.58 41 29.16 41 38 41 C38 44.3 38 47.6 38 51 C25.46 51 12.92 51 0 51 C0 34.17 0 17.34 0 0 Z " fill="#F0732C" transform="translate(717,223)"/>
<path d="M0 0 C18.8006483 -0.58752026 18.8006483 -0.58752026 25 4 C28.24724165 7.55167055 28.52973388 11.06915288 28.34375 15.71875 C27.74329208 19.70360712 26.5040148 21.78972462 24 25 C18.55103801 27.96528108 14.18428091 28.39046173 8.0625 28.1875 C4.0715625 28.0946875 4.0715625 28.0946875 0 28 C0 18.76 0 9.52 0 0 Z " fill="#363636" transform="translate(512,300)"/>
<path d="M0 0 C3.96 0 7.92 0 12 0 C12 16.83 12 33.66 12 51 C8.04 51 4.08 51 0 51 C0 34.17 0 17.34 0 0 Z " fill="#F0722B" transform="translate(413,223)"/>
<path d="M0 0 C2.66976304 2.66976304 3.65961231 5.81342546 5.0625 9.25 C9.93337448 20.74645781 16.5500263 30.62800413 24.56640625 40.20703125 C26 42 26 42 26 43 C13.79 43 1.58 43 -11 43 C-8.69 39.37 -6.38 35.74 -4 32 C1.17768536 21.64462929 0.40971159 11.31591896 0 0 Z " fill="#05A8A8" transform="translate(180,316)"/>
<path d="M0 0 C6 0 6 0 7.49145508 1.36108398 C7.83072021 1.98313721 8.16998535 2.60519043 8.51953125 3.24609375 C8.90173828 3.91833984 9.28394531 4.59058594 9.67773438 5.28320312 C10.05220703 5.99412109 10.42667969 6.70503906 10.8125 7.4375 C11.58936547 8.83229775 12.36668572 10.22684232 13.14453125 11.62109375 C13.75683594 12.73613281 14.36914062 13.85117187 15 15 C15.33 15.33 15.66 15.66 16 16 C16.63808594 14.92878906 17.27617187 13.85757812 17.93359375 12.75390625 C18.76815188 11.35672466 19.60279151 9.95959176 20.4375 8.5625 C20.85837891 7.85544922 21.27925781 7.14839844 21.71289062 6.41992188 C24.88671875 1.11328125 24.88671875 1.11328125 26 0 C27.65 0 29.3 0 31 0 C31 9.24 31 18.48 31 28 C29.02 28 27.04 28 25 28 C24.67 23.38 24.34 18.76 24 14 C23.0925 15.629375 22.185 17.25875 21.25 18.9375 C19.703125 21.71484375 19.703125 21.71484375 18 24 C16.68 24.33 15.36 24.66 14 25 C11.69 21.37 9.38 17.74 7 14 C6.67 18.62 6.34 23.24 6 28 C4.02 28 2.04 28 0 28 C0 18.76 0 9.52 0 0 Z " fill="#383838" transform="translate(448,300)"/>
<path d="M0 0 C6 0 6 0 7.78271484 1.37695312 C8.25402832 2.00537109 8.7253418 2.63378906 9.2109375 3.28125 C9.73300781 3.95800781 10.25507812 4.63476562 10.79296875 5.33203125 C11.31503906 6.04746094 11.83710937 6.76289063 12.375 7.5 C12.92027344 8.21542969 13.46554687 8.93085938 14.02734375 9.66796875 C15.36846083 11.43259649 16.68652866 13.21469915 18 15 C18.33 10.05 18.66 5.1 19 0 C21.31 0 23.62 0 26 0 C26 9.24 26 18.48 26 28 C20 28 20 28 18.34082031 26.85424805 C17.92413086 26.32871338 17.50744141 25.80317871 17.078125 25.26171875 C16.61019531 24.68873047 16.14226563 24.11574219 15.66015625 23.52539062 C15.19480469 22.91888672 14.72945312 22.31238281 14.25 21.6875 C13.76917969 21.09259766 13.28835938 20.49769531 12.79296875 19.88476562 C10.73963792 17.32525157 8.82051202 14.73076802 7 12 C6.67 17.28 6.34 22.56 6 28 C4.02 28 2.04 28 0 28 C0 18.76 0 9.52 0 0 Z " fill="#3A3A3A" transform="translate(717,300)"/>
<path d="M0 0 C2.31 0 4.62 0 7 0 C8.44641139 2.97491763 9.8804181 5.95566126 11.3125 8.9375 C11.71662109 9.76830078 12.12074219 10.59910156 12.53710938 11.45507812 C15.12530108 16.86292584 17.25445221 22.26388543 19 28 C16.69 28 14.38 28 12 28 C11.34 26.35 10.68 24.7 10 23 C5.71 23 1.42 23 -3 23 C-3.99 25.475 -3.99 25.475 -5 28 C-7.31 28 -9.62 28 -12 28 C-10.20513796 21.95523473 -7.50677707 16.33824153 -4.875 10.625 C-4.40707031 9.60277344 -3.93914063 8.58054687 -3.45703125 7.52734375 C-2.30741708 5.01696179 -1.15499936 2.50790769 0 0 Z " fill="#393939" transform="translate(595,300)"/>
<path d="M0 0 C6.93 0 13.86 0 21 0 C21 1.65 21 3.3 21 5 C16.05 5 11.1 5 6 5 C6 6.98 6 8.96 6 11 C10.29 11 14.58 11 19 11 C19 12.65 19 14.3 19 16 C14.71 16 10.42 16 6 16 C6 18.31 6 20.62 6 23 C10.95 23 15.9 23 21 23 C21 24.65 21 26.3 21 28 C14.07 28 7.14 28 0 28 C0 18.76 0 9.52 0 0 Z " fill="#353535" transform="translate(486,300)"/>
<path d="M0 0 C2.50695835 1.0817061 3.93586408 2.16521252 6 4 C5.01 5.32 4.02 6.64 3 8 C2.13375 7.67 1.2675 7.34 0.375 7 C-3.06537791 5.98062877 -5.44628592 5.53647208 -9 6 C-11.54002013 7.37283423 -11.54002013 7.37283423 -13 10 C-13.81753559 14.07099353 -13.65416433 16.99359333 -11.375 20.5 C-8.28489945 22.45164245 -6.61040698 22.43324884 -3 22 C0.27564363 21.07585059 0.27564363 21.07585059 3 20 C3.99 21.32 4.98 22.64 6 24 C1.27044789 28.20404632 -2.80922774 28.72992342 -9.08203125 28.51953125 C-13.6493493 27.70634075 -16.20368867 25.61369465 -19 22 C-21.31774343 18.06991331 -21.40256996 14.50878357 -21 10 C-16.84659818 0.30872909 -9.7987033 -1.51264136 0 0 Z " fill="#3C3C3C" transform="translate(781,300)"/>
<path d="M0 0 C0.763125 0.495 1.52625 0.99 2.3125 1.5 C1.6525 2.82 0.9925 4.14 0.3125 5.5 C-3.6875 5.5 -3.6875 5.5 -5.6875 4.5 C-8.91483972 4.21936176 -10.98804131 4.11113127 -13.8515625 5.703125 C-15.88391842 7.36588242 -15.88391842 7.36588242 -16.21875 9.875 C-16.2084375 10.74125 -16.198125 11.6075 -16.1875 12.5 C-16.1978125 13.36625 -16.208125 14.2325 -16.21875 15.125 C-15.88492053 17.63627898 -15.88492053 17.63627898 -13.83984375 19.29296875 C-10.9255587 20.92729558 -8.98906928 20.83689482 -5.6875 20.5 C-2.90183941 19.58742694 -2.90183941 19.58742694 -0.6875 18.5 C0.8125 19.875 0.8125 19.875 2.3125 21.5 C2.3125 22.16 2.3125 22.82 2.3125 23.5 C-3.00721208 27.4922243 -8.29598676 27.27079225 -14.6875 26.5 C-18.56606292 24.73083095 -20.14673101 23.27510222 -22.5625 19.8125 C-24.00643989 15.5608992 -24.40403219 11.94249957 -23.6875 7.5 C-18.81022843 -2.25454314 -9.73651582 -3.9606166 0 0 Z " fill="#3B3B3B" transform="translate(673.6875,301.5)"/>
<path d="M0 0 C0.763125 0.495 1.52625 0.99 2.3125 1.5 C1.6525 2.82 0.9925 4.14 0.3125 5.5 C-3.6875 5.5 -3.6875 5.5 -5.6875 4.5 C-8.91483972 4.21936176 -10.98804131 4.11113127 -13.8515625 5.703125 C-15.88391842 7.36588242 -15.88391842 7.36588242 -16.21875 9.875 C-16.2084375 10.74125 -16.198125 11.6075 -16.1875 12.5 C-16.1978125 13.36625 -16.208125 14.2325 -16.21875 15.125 C-15.88492053 17.63627898 -15.88492053 17.63627898 -13.83984375 19.29296875 C-10.9255587 20.92729558 -8.98906928 20.83689482 -5.6875 20.5 C-2.90183941 19.58742694 -2.90183941 19.58742694 -0.6875 18.5 C0.8125 19.875 0.8125 19.875 2.3125 21.5 C2.3125 22.16 2.3125 22.82 2.3125 23.5 C-3.00721208 27.4922243 -8.29598676 27.27079225 -14.6875 26.5 C-18.56606292 24.73083095 -20.14673101 23.27510222 -22.5625 19.8125 C-24.00643989 15.5608992 -24.40403219 11.94249957 -23.6875 7.5 C-18.81022843 -2.25454314 -9.73651582 -3.9606166 0 0 Z " fill="#3B3B3B" transform="translate(579.6875,301.5)"/>
<path d="M0 0 C2.206875 -0.061875 4.41375 -0.12375 6.6875 -0.1875 C8.54955078 -0.23970703 8.54955078 -0.23970703 10.44921875 -0.29296875 C14.21666932 0.01787701 16.02794917 0.7227143 19 3 C20.16343227 5.32686453 20.19895988 6.84721413 20.25 9.4375 C20.27578125 10.21996094 20.3015625 11.00242188 20.328125 11.80859375 C19.91962728 14.53677498 19.16727539 15.3441611 17 17 C11.57364835 18.80878388 5.66885438 18.05200784 0 18 C0 12.06 0 6.12 0 0 Z " fill="#FEFBF9" transform="translate(375,232)"/>
<path d="M0 0 C2.206875 -0.061875 4.41375 -0.12375 6.6875 -0.1875 C8.54955078 -0.23970703 8.54955078 -0.23970703 10.44921875 -0.29296875 C14.21666932 0.01787701 16.02794917 0.7227143 19 3 C20.16343227 5.32686453 20.19895988 6.84721413 20.25 9.4375 C20.27578125 10.21996094 20.3015625 11.00242188 20.328125 11.80859375 C19.91962728 14.53677498 19.16727539 15.3441611 17 17 C11.57364835 18.80878388 5.66885438 18.05200784 0 18 C0 12.06 0 6.12 0 0 Z " fill="#FEFBF9" transform="translate(325,232)"/>
<path d="M0 0 C10.29411765 0 10.29411765 0 15 4 C16.42662219 6.85324437 16.31033868 8.83454549 16 12 C13.84909549 15.33761045 12.79587201 16.73470933 9 18 C6.03 18 3.06 18 0 18 C0 12.06 0 6.12 0 0 Z " fill="#EDEDED" transform="translate(518,305)"/>
<path d="M0 0 C1.98 0 3.96 0 6 0 C6 7.59 6 15.18 6 23 C10.62 23 15.24 23 20 23 C20 24.65 20 26.3 20 28 C13.4 28 6.8 28 0 28 C0 18.76 0 9.52 0 0 Z " fill="#333333" transform="translate(681,300)"/>
<path d="M0 0 C1.98 0 3.96 0 6 0 C6 7.59 6 15.18 6 23 C10.62 23 15.24 23 20 23 C20 24.65 20 26.3 20 28 C13.4 28 6.8 28 0 28 C0 18.76 0 9.52 0 0 Z " fill="#333333" transform="translate(617,300)"/>
<path d="M0 0 C2.31 0 4.62 0 7 0 C7 9.24 7 18.48 7 28 C4.69 28 2.38 28 0 28 C0 18.76 0 9.52 0 0 Z " fill="#414141" transform="translate(749,300)"/>
<path d="M0 0 C2.31 0 4.62 0 7 0 C7 9.24 7 18.48 7 28 C4.69 28 2.38 28 0 28 C0 18.76 0 9.52 0 0 Z " fill="#414141" transform="translate(704,300)"/>
<path d="M0 0 C1.98 0 3.96 0 6 0 C6 9.24 6 18.48 6 28 C4.02 28 2.04 28 0 28 C0 18.76 0 9.52 0 0 Z " fill="#333333" transform="translate(545,300)"/>
<path d="M0 0 C2.72772048 2.72772048 3.7460131 5.97005745 5.125 9.5 C5.40214844 10.18964844 5.67929687 10.87929687 5.96484375 11.58984375 C8 16.73287408 8 16.73287408 8 19 C2.72 19 -2.56 19 -8 19 C-7.04637378 16.39402144 -6.08732872 13.79026349 -5.125 11.1875 C-4.85558594 10.44951172 -4.58617187 9.71152344 -4.30859375 8.95117188 C-3.91220703 7.88286133 -3.91220703 7.88286133 -3.5078125 6.79296875 C-3.14647217 5.81106567 -3.14647217 5.81106567 -2.77783203 4.80932617 C-2 3 -2 3 0 0 Z " fill="#FEF8F5" transform="translate(686,235)"/>
<path d="M0 0 C2.672336 3.56311466 3.77263971 5.84585747 5 10 C2.03 10 -0.94 10 -4 10 C-2.68 6.7 -1.36 3.4 0 0 Z " fill="#F2F2F2" transform="translate(598,307)"/>
<path d="M0 0 C2.475 0.495 2.475 0.495 5 1 C5.66 4.63 6.32 8.26 7 12 C4.84983417 9.13311223 3.32992412 6.88949817 1.8125 3.75 C1.46832031 3.04359375 1.12414062 2.3371875 0.76953125 1.609375 C0.51558594 1.07828125 0.26164063 0.5471875 0 0 Z " fill="#2BB6B6" transform="translate(172,301)"/>
</svg>
