<?xml version="1.0" encoding="UTF-8"?>
<svg version="1.1" xmlns="http://www.w3.org/2000/svg" width="503" height="503">
<path d="M0 0 C0.97775391 0.19867676 1.95550781 0.39735352 2.96289062 0.60205078 C42.51593428 8.87843217 79.31515192 24.73938716 111 50 C112.41732422 51.10021484 112.41732422 51.10021484 113.86328125 52.22265625 C125.78378994 61.67076313 137.27049552 72.29587284 147 84 C147.82242187 84.98484375 148.64484375 85.9696875 149.4921875 86.984375 C186.74810533 132.56043904 207.20324716 188.7734811 207.25 247.625 C207.25067474 248.39356323 207.25134949 249.16212646 207.25204468 249.95397949 C207.23285849 263.80605016 206.35035445 277.32733228 204 291 C203.83902832 291.94133789 203.67805664 292.88267578 203.51220703 293.85253906 C199.3384477 317.19512004 191.4959213 339.76576793 181 361 C180.63406738 361.74427246 180.26813477 362.48854492 179.89111328 363.25537109 C174.69478708 373.70996645 168.76027707 383.48744728 162 393 C161.54254395 393.6482373 161.08508789 394.29647461 160.61376953 394.96435547 C153.17900519 405.42100824 144.9584084 414.82963034 136 424 C135.40364746 424.61681641 134.80729492 425.23363281 134.19287109 425.86914062 C126.85726712 433.44470353 119.41860861 440.616424 111 447 C110.06559082 447.71639648 110.06559082 447.71639648 109.11230469 448.44726562 C97.3449358 457.41660328 85.06453266 465.06567353 72 472 C71.17725586 472.43940918 70.35451172 472.87881836 69.50683594 473.33154297 C45.23717481 486.09462044 18.93800219 493.47296021 -8 498 C-9.25852783 498.2160791 -9.25852783 498.2160791 -10.54248047 498.43652344 C-35.22330025 502.44629248 -62.46809189 501.19873852 -87 497 C-88.38807861 496.76651855 -88.38807861 496.76651855 -89.80419922 496.52832031 C-116.26782323 491.88037093 -141.27235677 482.43505108 -165 470 C-166.04148193 469.46342773 -166.04148193 469.46342773 -167.10400391 468.91601562 C-183.81571081 460.23209309 -199.08314128 448.61582548 -213 436 C-214.11967999 435.0024788 -215.23947242 434.0050838 -216.359375 433.0078125 C-257.00854182 396.48944144 -282.60978142 346.27589308 -293 293 C-293.16661133 292.17274414 -293.33322266 291.34548828 -293.50488281 290.49316406 C-299.13687558 261.19047704 -298.08691364 228.11439321 -292 199 C-291.82339844 198.09991211 -291.64679688 197.19982422 -291.46484375 196.27246094 C-283.00234807 153.66222806 -262.55232299 114.49910361 -234 82 C-233.23816406 81.12601562 -232.47632813 80.25203125 -231.69140625 79.3515625 C-222.84679595 69.35604926 -213.5079805 60.23365047 -203 52 C-201.55753906 50.83210938 -201.55753906 50.83210938 -200.0859375 49.640625 C-145.44292123 6.20288548 -68.92189763 -14.25837771 0 0 Z " fill="#BDE8DD" transform="translate(296,3)"/>
<path d="M0 0 C19.12243937 16.65279603 32.54570189 38.81863122 38.82421875 63.34375 C39.02176758 64.10478027 39.21931641 64.86581055 39.42285156 65.64990234 C48.59657666 102.44239556 42.62683771 145.64769815 23.55834961 178.45947266 C19.73011742 184.74675317 15.46692591 190.62901454 10.82421875 196.34375 C10.12941406 197.20613281 9.43460938 198.06851563 8.71875 198.95703125 C5.93780818 202.37622201 3.13558152 205.77711874 0.30664062 209.15673828 C-25.43221959 239.93651245 -27.033186 259.78253543 -28.17578125 304.34375 C-71.40578125 304.34375 -114.63578125 304.34375 -159.17578125 304.34375 C-159.50578125 287.84375 -159.83578125 271.34375 -160.17578125 254.34375 C-163.45406994 249.52999808 -163.45406994 249.52999808 -166.17578125 248.34375 C-168.18569087 248.17984075 -170.200041 248.06906739 -172.21484375 247.984375 C-173.43558594 247.91992188 -174.65632813 247.85546875 -175.9140625 247.7890625 C-178.48108712 247.66006629 -181.04886574 247.54520628 -183.6171875 247.4453125 C-192.59217593 246.93676121 -198.18724661 245.44008287 -204.48828125 238.96875 C-209.37721886 231.36373594 -209.98843493 224.20739155 -210.78125 215.31640625 C-210.91047907 213.95867984 -211.04072924 212.60105026 -211.17195129 211.24351501 C-211.51252289 207.69184671 -211.83931678 204.13904397 -212.16314697 200.58581543 C-212.49685188 196.95159699 -212.84372437 193.31863763 -213.18945312 189.68554688 C-213.86437194 182.57278491 -214.52472678 175.45873936 -215.17578125 168.34375 C-215.78574951 168.18293945 -216.39571777 168.02212891 -217.02416992 167.85644531 C-219.80744548 167.11494368 -222.58522468 166.35456075 -225.36328125 165.59375 C-226.8028418 165.21476562 -226.8028418 165.21476562 -228.27148438 164.828125 C-233.36287033 163.41874481 -237.37130303 162.21911912 -241.17578125 158.34375 C-242.82763874 155.04003502 -242.74186528 151.9061503 -242.17578125 148.34375 C-240.64428478 144.47975892 -238.61925034 140.9431516 -236.55078125 137.34375 C-235.6846521 135.79216187 -235.6846521 135.79216187 -234.80102539 134.20922852 C-232.94790634 130.90768313 -231.06685312 127.62369041 -229.17578125 124.34375 C-228.54043457 123.24015137 -227.90508789 122.13655273 -227.25048828 120.99951172 C-224.24689946 115.79742764 -221.22244173 110.60826538 -218.171875 105.43359375 C-217.397229 104.1038855 -217.397229 104.1038855 -216.60693359 102.74731445 C-215.74068071 101.29247658 -214.84701204 99.85286965 -213.90478516 98.44604492 C-210.71584968 93.55223915 -210.66995311 89.42024349 -210.67578125 83.78125 C-209.87314059 51.98259829 -199.2297033 23.85650017 -176.17578125 1.34375 C-127.71491122 -40.54074373 -48.95421017 -41.40300434 0 0 Z " fill="#F6DDCD" transform="translate(351.17578125,122.65625)"/>
<path d="M0 0 C6.42909671 4.6757067 10.28393656 9.36937311 11.55859375 17.3125 C11.62175781 17.869375 11.68492187 18.42625 11.75 19 C13.07 19.33 14.39 19.66 15.75 20 C15.66298828 18.98679688 15.66298828 18.98679688 15.57421875 17.953125 C15.20264248 10.60653131 15.20264248 10.60653131 18.0625 7.4375 C23.05975804 4.76454802 27.45910244 4.04993218 32.99609375 5.6484375 C38.64026908 7.87565002 42.43406696 10.89583164 45.75 16 C47.63136486 21.64409459 47.27814822 28.26944418 45.75 34 C47.4 34.33 49.05 34.66 50.75 35 C51.74 30.545 51.74 30.545 52.75 26 C59.9122027 27.33532593 62.82857835 29.45255942 67.5 35.125 C70.29491314 39.31736971 69.8293106 43.16205341 69.75 48 C67.11 48 64.47 48 61.75 48 C61.75 49.32 61.75 50.64 61.75 52 C62.925625 52.37125 64.10125 52.7425 65.3125 53.125 C70.49030718 55.06552809 74.90595197 58.12328507 77.921875 62.828125 C79.82402071 67.81677131 79.68610559 74.15120298 78.02734375 79.19921875 C75.32387139 84.2449708 71.07343514 87.93931543 65.75 90 C64.43 90 63.11 90 61.75 90 C61.75 91.65 61.75 93.3 61.75 95 C64.06 95 66.37 95 68.75 95 C70.87193438 99.24386875 70.36545274 104.40423607 69.75 109 C67.44645298 113.73465203 64.07699466 117.06139142 59.75 120 C56.27674819 121.1577506 53.38932552 121.06866652 49.75 121 C49.440625 119.72125 49.13125 118.4425 48.8125 117.125 C47.0610985 111.75234324 43.84035164 108.4108034 39.90625 104.45703125 C35.5714079 99.51751009 34.35891401 95.51809981 34.75 89 C31.99358584 89.49756092 31.99358584 89.49756092 29.75 91 C29.18813078 97.8705762 32.02738208 102.42012826 35.75 108 C37.49140262 109.96133132 39.26737908 111.7326469 41.234375 113.46484375 C44.28118227 116.550914 45.05703951 119.48208099 45.125 123.75 C44.98103253 130.25732943 42.96247603 134.84425413 38.3125 139.375 C32.5092898 143.05508452 27.5556776 143.71006267 20.75 143 C16.53245877 141.43794769 13.64374066 139.45022924 10.75 136 C10.75 135.34 10.75 134.68 10.75 134 C11.41 134 12.07 134 12.75 134 C13.03875 133.278125 13.3275 132.55625 13.625 131.8125 C14.32500171 130.06249572 15.0681376 128.32837618 15.875 126.625 C16.97223521 123.33329436 16.88512942 120.44580023 16.75 117 C15.43 117 14.11 117 12.75 117 C12.68683594 117.556875 12.62367188 118.11375 12.55859375 118.6875 C11.47556954 125.43645086 8.80891781 129.45337767 3.75 134 C-1.02804623 137.32385825 -5.58875546 137.86211846 -11.25 137 C-16.55444176 135.25991858 -20.22053447 132.77723411 -23.25 128 C-24.96612028 124.35247554 -25.49963658 121.52193131 -25.4375 117.5 C-25.43105469 116.5821875 -25.42460937 115.664375 -25.41796875 114.71875 C-25.25378988 112.06134313 -24.83734999 109.59373754 -24.25 107 C-25.57 107 -26.89 107 -28.25 107 C-30.82185351 111.2760938 -30.62387343 115.44607953 -30.80859375 120.3203125 C-31.02708984 121.64675781 -31.02708984 121.64675781 -31.25 123 C-35.93074237 126.12049491 -40.77063864 125.5813646 -46.25 125 C-51.10423106 122.70527259 -54.28386212 119.40426534 -57.25 115 C-57.25 111.77240642 -56.61281928 110.46050139 -54.625 107.9375 C-52.9764136 106.0834549 -52.9764136 106.0834549 -53.5625 103.75 C-53.9028125 102.88375 -53.9028125 102.88375 -54.25 102 C-55.24 102 -56.23 102 -57.25 102 C-58.6040932 103.98600337 -59.93457624 105.98817543 -61.25 108 C-66.27514206 112.52262785 -70.14029882 114.48273561 -76.87109375 114.31640625 C-82.13569996 113.61618769 -86.00655111 111.30889357 -89.625 107.5 C-92.48236843 103.10404856 -93.52947231 100.04809123 -93.875 94.75 C-93.94976562 93.67234375 -94.02453125 92.5946875 -94.1015625 91.484375 C-94.15054688 90.66453125 -94.19953125 89.8446875 -94.25 89 C-95.57 89 -96.89 89 -98.25 89 C-98.58 90.98 -98.91 92.96 -99.25 95 C-105.25095293 94.69995235 -108.99301277 91.98446487 -113.25 88 C-117.05203646 82.8910135 -116.97791637 77.14062782 -116.25 71 C-114.75 67.8125 -114.75 67.8125 -113.25 66 C-112.26 66.66 -111.27 67.32 -110.25 68 C-110.25 68.66 -110.25 69.32 -110.25 70 C-106.45458337 72.21399303 -102.49370579 73.00980198 -98.25 74 C-98.25 72.35 -98.25 70.7 -98.25 69 C-98.95125 68.979375 -99.6525 68.95875 -100.375 68.9375 C-105.57382971 67.24222944 -108.30996187 62.41005719 -111.25 58 C-111.91318308 52.22413804 -112.09381019 46.81743733 -109.625 41.5 C-104.78539908 36.40568324 -100.87194156 32.90552102 -93.5625 32.6875 C-88.98210479 32.71424683 -85.9506678 33.70534827 -82.0390625 36.02734375 C-80.12841732 37.06610063 -78.37103963 37.55617012 -76.25 38 C-76.38219587 35.58218584 -76.38219587 35.58218584 -77.25 33 C-79.35265369 31.34787869 -79.35265369 31.34787869 -82 30.25 C-82.86109375 29.84265625 -83.7221875 29.4353125 -84.609375 29.015625 C-87.15982386 28.03468313 -89.55917592 27.44524427 -92.25 27 C-91.01803837 20.68619665 -87.15950098 17.71281012 -82.25 14 C-79.64080172 12.69540086 -77.66057385 12.8673406 -74.75 12.875 C-73.7703125 12.87242187 -72.790625 12.86984375 -71.78125 12.8671875 C-69.25 13 -69.25 13 -67.25 14 C-67.25 16.64 -67.25 19.28 -67.25 22 C-65.93 22.33 -64.61 22.66 -63.25 23 C-63.1984375 22.38253906 -63.146875 21.76507813 -63.09375 21.12890625 C-62.08775056 13.61820588 -59.06625318 8.86259726 -53.25 4 C-48.30365553 1.54253045 -43.67589217 1.205967 -38.25 2 C-32.4626207 4.2506475 -27.89611901 8.36261602 -25.25 14 C-24.60771939 16.73208917 -24.39851893 19.1781403 -24.25 22 C-22.27 22.495 -22.27 22.495 -20.25 23 C-19.890146 17.00243338 -20.36659729 13.39070941 -23.25 8 C-23.25 5.875 -23.25 5.875 -22.25 4 C-15.87484558 -1.87185275 -8.17583187 -2.51564058 0 0 Z " fill="#02A7A7" transform="translate(283.25,131)"/>
<path d="M0 0 C4.49075115 3.47838529 8.5607333 7.17458857 12.08203125 11.640625 C14.94724742 15.16524937 17.6141284 16.81094148 22 18 C27.02718036 18.32088385 31.97150626 18.23571064 37 18 C37 17.34 37 16.68 37 16 C36.38125 15.71125 35.7625 15.4225 35.125 15.125 C33 14 33 14 31 12 C31 11.01 31 10.02 31 9 C33.1875 8.25 33.1875 8.25 36 8 C39.84570634 10.38067535 42.01263364 12.97416357 44 17 C44.328125 20.26171875 44.328125 20.26171875 44.25 23.6875 C44.23453125 24.82574219 44.2190625 25.96398437 44.203125 27.13671875 C44 30 44 30 43 32 C41.35 32 39.7 32 38 32 C38 29.36 38 26.72 38 24 C37.45601563 24.15855469 36.91203125 24.31710938 36.3515625 24.48046875 C27.89499969 26.34877914 19.46595987 25.42523098 12 21 C8.47333643 18.1434702 5.69292958 14.90290824 2.9375 11.3125 C-1.30513677 6.24870773 -6.75785185 3.47860133 -13.28515625 2.7421875 C-19.59683838 2.44952836 -24.65548062 3.55669305 -30 7 C-33.45758217 10.15398959 -36.76354379 14.11986779 -37.15698242 18.91210938 C-37.19680144 21.19472803 -37.17420605 23.46759612 -37.125 25.75 C-37.11597656 26.54277344 -37.10695312 27.33554688 -37.09765625 28.15234375 C-37.07417012 30.10169281 -37.03830137 32.05088575 -37 34 C-38.98 34.495 -38.98 34.495 -41 35 C-43.80075379 31.0390395 -44.38577244 28.3247085 -44.3125 23.5 C-44.30863281 22.3965625 -44.30476563 21.293125 -44.30078125 20.15625 C-44.00520718 17.05464156 -43.3140157 14.80602557 -42 12 C-42.99 12.33 -43.98 12.66 -45 13 C-45.89332031 12.96519531 -46.78664062 12.93039063 -47.70703125 12.89453125 C-51.13046886 12.80410082 -53.73360436 12.93421437 -57 14 C-59.93521138 17.66202563 -61.44857214 21.6024275 -63 26 C-64.015625 28.83984375 -64.015625 28.83984375 -65 31 C-67.125 31.8125 -67.125 31.8125 -69 32 C-70.41354108 27.42526705 -69.46843598 24.73954734 -67.6875 20.375 C-67.23761719 19.24835938 -66.78773438 18.12171875 -66.32421875 16.9609375 C-65 14 -65 14 -63 11 C-63.680625 10.938125 -64.36125 10.87625 -65.0625 10.8125 C-69.03178937 9.71461145 -71.78639555 7.50976025 -75 5 C-74.67 3.35 -74.34 1.7 -74 0 C-70.27348455 0.5707867 -67.71501812 1.63018603 -64.5 3.5625 C-56.87419743 7.47753257 -48.83010977 6.9763579 -40.6875 4.8125 C-36.66035373 3.44183433 -33.31930807 1.47125056 -29.78125 -0.859375 C-20.91774451 -6.53512852 -8.74974938 -5.23870345 0 0 Z " fill="#B3C9DE" transform="translate(267,184)"/>
<path d="M0 0 C1.90625 0.23828125 1.90625 0.23828125 4 1 C4.90625 2.85546875 4.90625 2.85546875 5.5 5.1875 C6.73594888 9.47576463 8.43853773 12.3786223 11 16 C11 16.66 11 17.32 11 18 C16.88475568 21.00986357 22.83615842 24.00142791 29.5 24.5 C30.655 24.665 31.81 24.83 33 25 C34.5 27.0625 34.5 27.0625 35 29 C33 31 33 31 29.0625 31.1875 C26.32363845 31.16190316 24.65992468 30.88664156 22 30 C22.04640625 30.556875 22.0928125 31.11375 22.140625 31.6875 C22.43676823 37.94881396 21.14498342 41.59455975 18 47 C16.68 47 15.36 47 14 47 C13.375 44.6875 13.375 44.6875 13 42 C13.66 41.01 14.32 40.02 15 39 C15.72407438 35.21938214 15.80536531 31.77106866 15 28 C13.22723462 26.04732526 11.41881965 24.90172688 9.171875 23.53125 C4.43565114 20.19204181 1.28445413 14.26371919 -1 9 C-1.328125 2.65625 -1.328125 2.65625 0 0 Z " fill="#B1C8DD" transform="translate(258,205)"/>
<path d="M0 0 C1.65 0 3.3 0 5 0 C5.1959375 0.64066406 5.391875 1.28132812 5.59375 1.94140625 C7.95290872 8.76466271 10.85377442 13.10159897 17 17 C22.13271409 19.38997512 27.4014928 20.40441413 33 21 C33.38218767 22.65614657 33.71395102 24.32457024 34 26 C33 27 33 27 30.0625 27.25 C25.12859145 27.19892434 20.63339431 25.56336556 16 24 C15.01 23.67 14.02 23.34 13 23 C12.360625 23.886875 11.72125 24.77375 11.0625 25.6875 C7.80263255 29.61989025 3.67427978 32.02174676 -1 34 C-1.99 34 -2.98 34 -4 34 C-4.33 32.35 -4.66 30.7 -5 29 C-4.38511719 28.60167969 -3.77023437 28.20335937 -3.13671875 27.79296875 C-2.32847656 27.26316406 -1.52023437 26.73335937 -0.6875 26.1875 C0.11300781 25.66542969 0.91351563 25.14335937 1.73828125 24.60546875 C3.7237402 23.19610151 5.3491852 21.77903343 7 20 C5.98464926 17.89812907 4.92718312 15.88062445 3.7109375 13.88671875 C0.71615688 8.95671439 -0.6139789 5.7714017 0 0 Z " fill="#B0C8DD" transform="translate(278,152)"/>
<path d="M0 0 C3.20003874 -0.57436593 5.35915685 -0.34740444 8.2265625 1.20703125 C14.94118688 6.00158745 19.05137322 11.51207645 20.47265625 19.734375 C20.8395421 26.39476426 19.34445064 32.78665923 15 38 C12.32421875 38.7734375 12.32421875 38.7734375 10 39 C9.25 36.9375 9.25 36.9375 9 34 C10.00706663 32.31072694 11.01722762 30.62293411 12.0625 28.95703125 C14.29533528 24.29598761 13.51082094 19.47570493 11.875 14.75 C8.56691962 9.89814878 4.58707496 6.80758308 -1 5 C-0.67 3.35 -0.34 1.7 0 0 Z " fill="#B4CADE" transform="translate(318,182)"/>
<path d="M0 0 C0.77734375 2.046875 0.77734375 2.046875 1 4 C0.67 4.33 0.34 4.66 0 5 C-1.87544801 4.76130662 -3.75071672 4.52111065 -5.625 4.2734375 C-13.62624333 3.35224172 -19.98001359 3.70761567 -27 8 C-27.52335938 8.53625 -28.04671875 9.0725 -28.5859375 9.625 C-30 11 -30 11 -32.6875 11.1875 C-33.450625 11.125625 -34.21375 11.06375 -35 11 C-35.33 9.68 -35.66 8.36 -36 7 C-25.30881348 -2.22525551 -13.39389296 -6.81870914 0 0 Z " fill="#AEC8DC" transform="translate(258,160)"/>
</svg>
