<?xml version="1.0" encoding="UTF-8"?>
<svg version="1.1" xmlns="http://www.w3.org/2000/svg" width="503" height="503">
<path d="M0 0 C0.97775391 0.19867676 1.95550781 0.39735352 2.96289062 0.60205078 C42.51593428 8.87843217 79.31515192 24.73938716 111 50 C112.41732422 51.10021484 112.41732422 51.10021484 113.86328125 52.22265625 C125.78378994 61.67076313 137.27049552 72.29587284 147 84 C147.82242187 84.98484375 148.64484375 85.9696875 149.4921875 86.984375 C186.74810533 132.56043904 207.20324716 188.7734811 207.25 247.625 C207.25067474 248.39356323 207.25134949 249.16212646 207.25204468 249.95397949 C207.23285849 263.80605016 206.35035445 277.32733228 204 291 C203.83902832 291.94133789 203.67805664 292.88267578 203.51220703 293.85253906 C199.3384477 317.19512004 191.4959213 339.76576793 181 361 C180.63406738 361.74427246 180.26813477 362.48854492 179.89111328 363.25537109 C174.69478708 373.70996645 168.76027707 383.48744728 162 393 C161.54254395 393.6482373 161.08508789 394.29647461 160.61376953 394.96435547 C153.17900519 405.42100824 144.9584084 414.82963034 136 424 C135.40364746 424.61681641 134.80729492 425.23363281 134.19287109 425.86914062 C126.85726712 433.44470353 119.41860861 440.616424 111 447 C110.06559082 447.71639648 110.06559082 447.71639648 109.11230469 448.44726562 C97.3449358 457.41660328 85.06453266 465.06567353 72 472 C71.17725586 472.43940918 70.35451172 472.87881836 69.50683594 473.33154297 C45.23717481 486.09462044 18.93800219 493.47296021 -8 498 C-9.25852783 498.2160791 -9.25852783 498.2160791 -10.54248047 498.43652344 C-35.22330025 502.44629248 -62.46809189 501.19873852 -87 497 C-88.38807861 496.76651855 -88.38807861 496.76651855 -89.80419922 496.52832031 C-116.26782323 491.88037093 -141.27235677 482.43505108 -165 470 C-166.04148193 469.46342773 -166.04148193 469.46342773 -167.10400391 468.91601562 C-183.81571081 460.23209309 -199.08314128 448.61582548 -213 436 C-214.11967999 435.0024788 -215.23947242 434.0050838 -216.359375 433.0078125 C-257.00854182 396.48944144 -282.60978142 346.27589308 -293 293 C-293.16661133 292.17274414 -293.33322266 291.34548828 -293.50488281 290.49316406 C-299.13687558 261.19047704 -298.08691364 228.11439321 -292 199 C-291.82339844 198.09991211 -291.64679688 197.19982422 -291.46484375 196.27246094 C-283.00234807 153.66222806 -262.55232299 114.49910361 -234 82 C-233.23816406 81.12601562 -232.47632813 80.25203125 -231.69140625 79.3515625 C-222.84679595 69.35604926 -213.5079805 60.23365047 -203 52 C-201.55753906 50.83210938 -201.55753906 50.83210938 -200.0859375 49.640625 C-145.44292123 6.20288548 -68.92189763 -14.25837771 0 0 Z " fill="#BCE8DE" transform="translate(296,3)"/>
<path d="M0 0 C4.91630653 4.02423478 8.17060652 7.82262826 9.625 14.125 C10.39362626 22.74001933 9.11524358 30.26219552 3.625 37.125 C-3.58598263 44.17209666 -10.42793218 45.61232354 -20.1574707 45.54882812 C-28.51453997 45.26128977 -36.67988301 43.43798068 -43.4375 38.3125 C-44.406875 37.590625 -45.37625 36.86875 -46.375 36.125 C-48.52687593 36.41888344 -48.52687593 36.41888344 -50.375 37.125 C-48.93420124 48.80043824 -43.87110145 56.62248731 -34.96875 64.2109375 C-24.06141954 72.26002173 -10.12473503 72.61215378 2.91210938 70.80859375 C18.51718271 67.90990565 31.24789281 61.2567506 40.5 48 C48.57022287 34.28252897 49.6839521 18.04057551 46.0625 2.75 C45.918125 2.21375 45.77375 1.6775 45.625 1.125 C50.82205396 1.68902136 54.73974595 3.38609071 59.3125 5.75 C60.01729492 6.1111792 60.72208984 6.4723584 61.44824219 6.84448242 C72.62163614 12.6489918 81.61095632 19.42835222 90.625 28.125 C91.33398438 28.77082031 92.04296875 29.41664063 92.7734375 30.08203125 C118.77509148 54.43868263 129.41608136 91.5602175 130.625 126.125 C130.67336457 129.60309521 130.66813098 133.08023266 130.66015625 136.55859375 C130.66783197 139.29973169 130.67780804 142.04085366 130.68823242 144.78198242 C130.68774083 146.64823872 130.67455112 148.51453147 130.64916992 150.38061523 C130.04970405 162.90316078 130.04970405 162.90316078 135.53125 173.609375 C136.23701172 174.20331055 136.94277344 174.79724609 137.66992188 175.40917969 C142.62286578 179.75599409 144.43083375 187.26980115 144.86328125 193.62890625 C145.20631218 206.14953524 142.78168676 216.23245084 134.625 226.125 C130.76270034 230.02523973 126.59216628 233.71237638 121.625 236.125 C120.635 236.125 119.645 236.125 118.625 236.125 C118.25375 238.043125 118.25375 238.043125 117.875 240 C112.5929725 263.22644968 94.64859854 284.08823481 75.13671875 296.99609375 C60.93131611 305.79336864 45.96273897 311.30958715 29.5625 314.375 C28.25224854 314.62008301 28.25224854 314.62008301 26.91552734 314.87011719 C-11.43538091 321.52811311 -60.04433106 319.59939391 -93.375 297.125 C-96.83683827 294.5959924 -100.11996401 291.91353325 -103.375 289.125 C-104.18582031 288.45984375 -104.99664062 287.7946875 -105.83203125 287.109375 C-119.89553146 275.14986301 -130.04682622 259.49791589 -135.8125 242 C-137.91212144 236.15157348 -140.63641063 233.88765431 -145.875 230.73046875 C-154.13377574 225.4267862 -159.13438559 216.46089339 -161.375 207.125 C-161.66245077 204.32685176 -161.70930876 201.56143324 -161.6875 198.75 C-161.68258545 198.00049072 -161.6776709 197.25098145 -161.67260742 196.47875977 C-161.4658348 186.71379021 -158.31812964 178.07922729 -151.30883789 171.05419922 C-148.65887049 167.04027309 -148.89886737 164.0327515 -149.0546875 159.3359375 C-149.06509064 158.47803619 -149.07549377 157.62013489 -149.08621216 156.73623657 C-149.12172663 153.9901256 -149.18380192 151.24552924 -149.25 148.5 C-149.61937295 130.74440276 -148.91344912 113.55128562 -145.1875 96.125 C-144.97464355 95.12299561 -144.76178711 94.12099121 -144.54248047 93.08862305 C-137.4328546 61.24689779 -118.94018049 31.2501417 -91.375 13.125 C-80.68781111 6.72967962 -69.04019267 0.06151136 -56.54833984 -1.57348633 C-53.85497162 -1.94714503 -51.17786778 -2.39830637 -48.49609375 -2.84765625 C-12.34147542 -8.80237585 -12.34147542 -8.80237585 0 0 Z " fill="#F6DDCD" transform="translate(262.375,122.875)"/>
<path d="M0 0 C9.96794686 8.10215168 15.98772084 17.51862804 19 30 C20.40747386 45.31855271 17.69263784 59.67650332 8 72 C-1.11078514 82.83997497 -14.91835443 89.5616478 -29 91 C-44.84445389 91.9320267 -56.22802321 90.60875194 -68.90625 80.4765625 C-75.02099399 74.97865672 -79.53736941 67.00450492 -81 58.875 C-81 56 -81 56 -79 54 C-76.19992291 54.20000551 -74.82320659 55.13146177 -72.5625 56.8125 C-63.01033011 63.31559821 -51.15924247 64.17278663 -40 63 C-33.0173858 61.18140828 -27.00171821 57.244164 -23.1875 51.0625 C-20.24629981 43.47729951 -19.60898236 34.52547092 -22.828125 26.91796875 C-26.52359978 20.86970836 -32.43740702 17.22880516 -39 15 C-53.01357646 11.71775036 -67.60275796 15.26800365 -81.49487305 17.6328125 C-84 18 -84 18 -87 18 C-85.14416358 8.65895667 -76.43316799 2.11621359 -69 -3 C-46.87309731 -15.20884395 -21.06986475 -14.24068749 0 0 Z " fill="#01A7A7" transform="translate(292,104)"/>
<path d="M0 0 C0.80695313 0.2578125 1.61390625 0.515625 2.4453125 0.78125 C15.903457 4.76243744 37.321667 4.85151283 50.078125 -1.6171875 C53.09200575 -3.09792021 55.70548192 -2.20433735 58.875 -1.5 C60.875 0.5 60.875 0.5 61.5 3.125 C60.49085963 8.57435798 57.195598 11.22796818 52.875 14.5 C40.31829604 21.96856088 27.0932942 27.30146082 12.35546875 23.62109375 C2.97593966 20.48768988 -9.23318201 15.91688284 -15.125 7.5 C-15.61490445 3.94819276 -15.75952763 1.69440494 -14.0625 -1.5 C-9.71610394 -3.74330119 -4.40097996 -1.32488517 0 0 Z " fill="#474646" transform="translate(231.125,363.5)"/>
<path d="M0 0 C5.89773591 3.75310467 9.53764802 7.01778913 11.75 13.75 C12.8636114 20.95135373 10.91101899 26.30837717 7.0625 32.4375 C2.85242697 36.64757303 -1.76547605 38.94040525 -7.75 39.3125 C-13.92838826 39.02438863 -18.00163197 35.58419497 -22.625 31.8125 C-26.45675125 26.94912341 -26.74705751 21.50176918 -26.6328125 15.50390625 C-25.84520136 9.83792816 -22.78136992 6.16931846 -18.6875 2.375 C-12.53167401 -1.72888399 -7.04955609 -2.71136773 0 0 Z " fill="#342F2F" transform="translate(197.25,285.25)"/>
<path d="M0 0 C4.52815133 2.96671983 7.45827109 7.32793828 9.15234375 12.41015625 C9.9202786 20.03043282 8.29735353 25.31180879 3.90234375 31.66015625 C-0.28580994 35.84830994 -4.42861409 37.52711218 -10.28515625 37.91015625 C-16.64634976 37.68219539 -20.96135308 34.39573853 -25.22265625 29.91015625 C-29.08043654 23.97510965 -29.8023219 18.36557743 -28.84765625 11.41015625 C-26.39512781 5.3092384 -22.26437736 1.20843052 -16.47265625 -1.83984375 C-10.41259325 -3.57129032 -5.56898997 -2.65597983 0 0 Z " fill="#332F2F" transform="translate(328.84765625,286.58984375)"/>
<path d="M0 0 C4.10761449 3.30664739 7.64889203 6.30807431 10.3125 10.9375 C11.01826172 12.12666016 11.01826172 12.12666016 11.73828125 13.33984375 C16.28408239 22.92402509 16.78246979 34.87126634 13.375 44.9375 C9.0847659 54.94304597 2.16734451 64.35207108 -8 69 C-8.99 68.67 -9.98 68.34 -11 68 C-10.76925781 67.1440625 -10.53851563 66.288125 -10.30078125 65.40625 C-4.82519355 44.12495961 -1.88801573 21.86716721 0 0 Z " fill="#ECC392" transform="translate(392,290)"/>
<path d="M0 0 C0.66 0 1.32 0 2 0 C2.04898438 0.90878906 2.09796875 1.81757813 2.1484375 2.75390625 C2.69298197 11.90788664 3.65205198 20.9251128 5 30 C5.10570313 30.73234863 5.21140625 31.46469727 5.3203125 32.21923828 C7.02154361 43.9473475 9.28515238 55.46534286 12 67 C2.33676881 64.30328432 -3.93988382 57.02240991 -8.84375 48.5546875 C-11.54582105 42.58457105 -12.36258193 37.0812141 -12.3125 30.625 C-12.30758545 29.87549072 -12.3026709 29.12598145 -12.29760742 28.35375977 C-12.06077103 17.1690094 -7.48948959 8.26426438 0 0 Z " fill="#ECC392" transform="translate(113,291)"/>
<path d="M0 0 C1.02075623 -0.00287018 1.02075623 -0.00287018 2.06213379 -0.00579834 C3.50122446 -0.00715963 4.94032744 -0.00346705 6.37939453 0.00488281 C8.58524087 0.01558372 10.79027281 0.00498628 12.99609375 -0.0078125 C14.39323097 -0.00649089 15.79036768 -0.00392848 17.1875 0 C18.46302734 0.00225586 19.73855469 0.00451172 21.05273438 0.00683594 C24.09375 0.265625 24.09375 0.265625 26.09375 2.265625 C26.16159002 5.79330609 25.97087655 8.25302603 23.6015625 10.98828125 C17.75783721 16.09213575 13.55845509 17.70008043 5.7734375 17.50390625 C-0.95257868 16.90582026 -4.36685851 13.05743855 -8.68359375 8.30078125 C-9.90625 6.265625 -9.90625 6.265625 -9.72265625 4.13671875 C-7.64529993 -0.62430364 -4.72024349 0.00834808 0 0 Z " fill="#DBA689" transform="translate(245.90625,320.734375)"/>
</svg>
